<svg width="21" height="19" viewBox="0 0 21 19" fill="none" xmlns="http://www.w3.org/2000/svg">
<path d="M0.440625 8.93711C-0.145312 9.52304 -0.145313 10.4746 0.440625 11.0605L7.94062 18.5605C8.52656 19.1465 9.47812 19.1465 10.0641 18.5605C10.65 17.9746 10.65 17.023 10.0641 16.4371L5.11875 11.4965L19.5 11.4965C20.3297 11.4965 21 10.8262 21 9.99648C21 9.1668 20.3297 8.49648 19.5 8.49648L5.12344 8.49648L10.0594 3.55586C10.6453 2.96992 10.6453 2.01836 10.0594 1.43242C9.47344 0.846482 8.52188 0.846482 7.93594 1.43242L0.435937 8.93242L0.440625 8.93711Z" fill="#3A3A3A"/>
</svg>
