<svg width="390" height="752" viewBox="0 0 390 752" fill="none" xmlns="http://www.w3.org/2000/svg">
<g clip-path="url(#clip0_1062_4599)">
<rect width="390" height="752" fill="#FBFAF8"/>
<rect width="390" height="752" fill="#FBFAF8"/>
<line x1="108" y1="116" x2="254" y2="116" stroke="#D3F36B" stroke-width="14"/>
<path d="M26.7212 29.9853L25.3188 33.7071C24.0645 37.0359 25.0714 40.7939 27.8221 43.0496L30.8975 45.5716L27.1757 44.1692C23.8469 42.9149 20.0889 43.9219 17.8332 46.6725L15.3112 49.748L16.7136 46.0261C17.9679 42.6973 16.9609 38.9393 14.2103 36.6836L11.1348 34.1616L14.8567 35.564C18.1855 36.8183 21.9435 35.8114 24.1992 33.0607L26.7212 29.9853Z" fill="#D3F36B"/>
<g clip-path="url(#clip1_1062_4599)">
<path d="M274.044 95.7405C276.197 90.4896 263.225 80.3036 245.07 72.9893C226.915 65.6751 210.452 64.0024 208.299 69.2532C206.146 74.5041 219.118 84.6901 237.273 92.0044C255.428 99.3186 271.891 100.991 274.044 95.7405Z" stroke="#E2B8E0" stroke-miterlimit="10"/>
<path d="M268.706 108.752C270.859 103.501 257.887 93.3148 239.732 86.0006C221.577 78.6863 205.114 77.0136 202.961 82.2645C200.808 87.5153 213.781 97.7013 231.936 105.016C250.091 112.33 266.554 114.003 268.706 108.752Z" stroke="#E2B8E0" stroke-miterlimit="10"/>
</g>
</g>
<defs>
<clipPath id="clip0_1062_4599">
<rect width="390" height="752" fill="white"/>
</clipPath>
<clipPath id="clip1_1062_4599">
<rect width="73" height="42" fill="white" transform="translate(204.312 64.4141) rotate(5.80833)"/>
</clipPath>
</defs>
</svg>
