<svg width="390" height="844" viewBox="0 0 390 844" fill="none" xmlns="http://www.w3.org/2000/svg">
<g clip-path="url(#clip0_724_4188)">
<rect width="390" height="844" fill="#E2B8E0"/>
<path d="M0 0H390V630C390 675.287 353.287 712 308 712H0V0Z" fill="#242424"/>
<path d="M401 910L-9.00003 910V910C-9.00002 800.648 79.6476 712 189 712L203 712C312.352 712 401 800.648 401 910V910Z" fill="#FBFAF8"/>
<path d="M157.502 596.098C156.597 596.098 155.771 595.888 155.024 595.468C154.277 595.039 153.685 594.446 153.246 593.69C152.817 592.925 152.602 592.066 152.602 591.114C152.602 590.162 152.817 589.308 153.246 588.552C153.685 587.787 154.277 587.194 155.024 586.774C155.771 586.345 156.597 586.13 157.502 586.13C158.417 586.13 159.247 586.345 159.994 586.774C160.741 587.194 161.329 587.782 161.758 588.538C162.187 589.294 162.402 590.153 162.402 591.114C162.402 592.075 162.187 592.934 161.758 593.69C161.329 594.446 160.741 595.039 159.994 595.468C159.247 595.888 158.417 596.098 157.502 596.098ZM157.502 594.992C158.183 594.992 158.795 594.833 159.336 594.516C159.887 594.199 160.316 593.746 160.624 593.158C160.941 592.57 161.1 591.889 161.1 591.114C161.1 590.33 160.941 589.649 160.624 589.07C160.316 588.482 159.891 588.029 159.35 587.712C158.809 587.395 158.193 587.236 157.502 587.236C156.811 587.236 156.195 587.395 155.654 587.712C155.113 588.029 154.683 588.482 154.366 589.07C154.058 589.649 153.904 590.33 153.904 591.114C153.904 591.889 154.058 592.57 154.366 593.158C154.683 593.746 155.113 594.199 155.654 594.516C156.205 594.833 156.821 594.992 157.502 594.992ZM165.393 589.574C165.617 589.135 165.934 588.795 166.345 588.552C166.765 588.309 167.274 588.188 167.871 588.188V589.504H167.535C166.107 589.504 165.393 590.279 165.393 591.828V596H164.119V588.328H165.393V589.574ZM174.418 585.64V596H173.144V585.64H174.418ZM179.97 596.126C179.252 596.126 178.598 595.963 178.01 595.636C177.432 595.309 176.974 594.847 176.638 594.25C176.312 593.643 176.148 592.943 176.148 592.15C176.148 591.366 176.316 590.675 176.652 590.078C176.998 589.471 177.464 589.009 178.052 588.692C178.64 588.365 179.298 588.202 180.026 588.202C180.754 588.202 181.412 588.365 182 588.692C182.588 589.009 183.05 589.467 183.386 590.064C183.732 590.661 183.904 591.357 183.904 592.15C183.904 592.943 183.727 593.643 183.372 594.25C183.027 594.847 182.556 595.309 181.958 595.636C181.361 595.963 180.698 596.126 179.97 596.126ZM179.97 595.006C180.428 595.006 180.857 594.899 181.258 594.684C181.66 594.469 181.982 594.147 182.224 593.718C182.476 593.289 182.602 592.766 182.602 592.15C182.602 591.534 182.481 591.011 182.238 590.582C181.996 590.153 181.678 589.835 181.286 589.63C180.894 589.415 180.47 589.308 180.012 589.308C179.546 589.308 179.116 589.415 178.724 589.63C178.342 589.835 178.034 590.153 177.8 590.582C177.567 591.011 177.45 591.534 177.45 592.15C177.45 592.775 177.562 593.303 177.786 593.732C178.02 594.161 178.328 594.483 178.71 594.698C179.093 594.903 179.513 595.006 179.97 595.006ZM188.778 588.202C189.441 588.202 190.02 588.347 190.514 588.636C191.018 588.925 191.392 589.289 191.634 589.728V588.328H192.922V596.168C192.922 596.868 192.773 597.489 192.474 598.03C192.176 598.581 191.746 599.01 191.186 599.318C190.636 599.626 189.992 599.78 189.254 599.78C188.246 599.78 187.406 599.542 186.734 599.066C186.062 598.59 185.666 597.941 185.544 597.12H186.804C186.944 597.587 187.234 597.96 187.672 598.24C188.111 598.529 188.638 598.674 189.254 598.674C189.954 598.674 190.524 598.455 190.962 598.016C191.41 597.577 191.634 596.961 191.634 596.168V594.558C191.382 595.006 191.009 595.379 190.514 595.678C190.02 595.977 189.441 596.126 188.778 596.126C188.097 596.126 187.476 595.958 186.916 595.622C186.366 595.286 185.932 594.815 185.614 594.208C185.297 593.601 185.138 592.911 185.138 592.136C185.138 591.352 185.297 590.666 185.614 590.078C185.932 589.481 186.366 589.019 186.916 588.692C187.476 588.365 188.097 588.202 188.778 588.202ZM191.634 592.15C191.634 591.571 191.518 591.067 191.284 590.638C191.051 590.209 190.734 589.882 190.332 589.658C189.94 589.425 189.506 589.308 189.03 589.308C188.554 589.308 188.12 589.42 187.728 589.644C187.336 589.868 187.024 590.195 186.79 590.624C186.557 591.053 186.44 591.557 186.44 592.136C186.44 592.724 186.557 593.237 186.79 593.676C187.024 594.105 187.336 594.437 187.728 594.67C188.12 594.894 188.554 595.006 189.03 595.006C189.506 595.006 189.94 594.894 190.332 594.67C190.734 594.437 191.051 594.105 191.284 593.676C191.518 593.237 191.634 592.729 191.634 592.15ZM195.768 587.082C195.526 587.082 195.32 586.998 195.152 586.83C194.984 586.662 194.9 586.457 194.9 586.214C194.9 585.971 194.984 585.766 195.152 585.598C195.32 585.43 195.526 585.346 195.768 585.346C196.002 585.346 196.198 585.43 196.356 585.598C196.524 585.766 196.608 585.971 196.608 586.214C196.608 586.457 196.524 586.662 196.356 586.83C196.198 586.998 196.002 587.082 195.768 587.082ZM196.384 588.328V596H195.11V588.328H196.384ZM202.329 588.188C203.262 588.188 204.018 588.473 204.597 589.042C205.175 589.602 205.465 590.414 205.465 591.478V596H204.205V591.66C204.205 590.895 204.013 590.311 203.631 589.91C203.248 589.499 202.725 589.294 202.063 589.294C201.391 589.294 200.854 589.504 200.453 589.924C200.061 590.344 199.865 590.955 199.865 591.758V596H198.591V588.328H199.865V589.42C200.117 589.028 200.457 588.725 200.887 588.51C201.325 588.295 201.806 588.188 202.329 588.188ZM221.568 588.328L219.174 596H217.858L216.01 589.91L214.162 596H212.846L210.438 588.328H211.74L213.504 594.768L215.408 588.328H216.71L218.572 594.782L220.308 588.328H221.568ZM223.525 587.082C223.283 587.082 223.077 586.998 222.909 586.83C222.741 586.662 222.657 586.457 222.657 586.214C222.657 585.971 222.741 585.766 222.909 585.598C223.077 585.43 223.283 585.346 223.525 585.346C223.759 585.346 223.955 585.43 224.113 585.598C224.281 585.766 224.365 585.971 224.365 586.214C224.365 586.457 224.281 586.662 224.113 586.83C223.955 586.998 223.759 587.082 223.525 587.082ZM224.141 588.328V596H222.867V588.328H224.141ZM227.902 589.378V593.9C227.902 594.273 227.981 594.539 228.14 594.698C228.298 594.847 228.574 594.922 228.966 594.922H229.904V596H228.756C228.046 596 227.514 595.837 227.16 595.51C226.805 595.183 226.628 594.647 226.628 593.9V589.378H225.634V588.328H226.628V586.396H227.902V588.328H229.904V589.378H227.902ZM235.29 588.188C235.869 588.188 236.392 588.314 236.858 588.566C237.325 588.809 237.689 589.177 237.95 589.672C238.221 590.167 238.356 590.769 238.356 591.478V596H237.096V591.66C237.096 590.895 236.905 590.311 236.522 589.91C236.14 589.499 235.617 589.294 234.954 589.294C234.282 589.294 233.746 589.504 233.344 589.924C232.952 590.344 232.756 590.955 232.756 591.758V596H231.482V585.64H232.756V589.42C233.008 589.028 233.354 588.725 233.792 588.51C234.24 588.295 234.74 588.188 235.29 588.188Z" fill="#FAFAFA"/>
<line x1="25" y1="591.5" x2="141" y2="591.5" stroke="#FAFAFA"/>
<line x1="251" y1="591.5" x2="367" y2="591.5" stroke="#FAFAFA"/>
<path d="M127.949 239.715C125.216 226.745 133.514 214.015 146.484 211.281L285.432 182L287.082 189.828C289.815 202.798 281.517 215.528 268.547 218.261L129.599 247.543L127.949 239.715Z" fill="#D3F36B"/>
<path d="M144.576 226.433L145.642 231.49C145.73 231.907 145.881 232.186 146.096 232.326C146.308 232.456 146.634 232.474 147.072 232.382L148.121 232.161L148.375 233.366L147.092 233.637C146.298 233.804 145.665 233.747 145.191 233.465C144.718 233.183 144.393 232.625 144.217 231.79L143.151 226.733L142.04 226.967L141.792 225.793L142.904 225.559L142.448 223.398L143.873 223.098L144.329 225.259L146.567 224.787L146.815 225.961L144.576 226.433ZM154.499 232.223C153.696 232.392 152.927 232.364 152.192 232.137C151.468 231.908 150.848 231.499 150.331 230.91C149.823 230.309 149.475 229.564 149.288 228.677C149.103 227.801 149.129 226.989 149.364 226.241C149.607 225.482 150.02 224.855 150.603 224.362C151.183 223.858 151.88 223.52 152.695 223.348C153.509 223.177 154.283 223.204 155.018 223.431C155.75 223.647 156.374 224.05 156.891 224.639C157.418 225.225 157.775 225.962 157.962 226.849C158.149 227.737 158.115 228.561 157.862 229.323C157.616 230.073 157.198 230.7 156.607 231.206C156.016 231.713 155.313 232.051 154.499 232.223ZM154.235 230.97C154.747 230.863 155.202 230.641 155.6 230.307C155.998 229.972 156.282 229.536 156.452 228.999C156.633 228.459 156.651 227.845 156.506 227.156C156.361 226.467 156.102 225.912 155.729 225.489C155.357 225.066 154.927 224.786 154.44 224.648C153.951 224.501 153.451 224.481 152.94 224.588C152.418 224.698 151.963 224.92 151.575 225.252C151.196 225.572 150.926 225.999 150.766 226.534C150.606 227.07 150.599 227.682 150.744 228.37C150.892 229.07 151.141 229.633 151.493 230.06C151.855 230.486 152.275 230.773 152.754 230.923C153.23 231.062 153.724 231.078 154.235 230.97ZM164.726 225.408C164.541 224.531 164.557 223.726 164.773 222.994C164.987 222.251 165.364 221.632 165.902 221.137C166.452 220.64 167.113 220.31 167.885 220.147C168.553 220.006 169.207 220.032 169.847 220.224C170.485 220.406 171.008 220.715 171.416 221.153L170.459 216.612L171.9 216.309L174.341 227.894L172.901 228.198L172.561 226.585C172.387 227.156 172.059 227.667 171.576 228.117C171.091 228.558 170.478 228.856 169.737 229.012C168.975 229.172 168.241 229.131 167.536 228.887C166.841 228.641 166.244 228.216 165.746 227.613C165.249 227.009 164.908 226.274 164.726 225.408ZM171.994 223.892C171.857 223.245 171.608 222.709 171.246 222.284C170.884 221.859 170.452 221.568 169.95 221.412C169.457 221.244 168.944 221.216 168.412 221.328C167.879 221.44 167.42 221.668 167.035 222.01C166.649 222.353 166.377 222.792 166.217 223.327C166.057 223.863 166.045 224.454 166.182 225.101C166.32 225.758 166.572 226.305 166.936 226.741C167.298 227.166 167.726 227.462 168.219 227.631C168.71 227.789 169.222 227.812 169.755 227.7C170.287 227.588 170.746 227.36 171.131 227.017C171.525 226.662 171.802 226.217 171.962 225.681C172.119 225.136 172.13 224.54 171.994 223.892ZM184.23 220.987C184.287 221.258 184.332 221.548 184.364 221.858L177.507 223.303C177.737 224.137 178.164 224.74 178.787 225.11C179.418 225.467 180.11 225.567 180.861 225.408C181.477 225.279 181.959 225.03 182.306 224.662C182.662 224.282 182.873 223.834 182.939 223.319L184.473 222.996C184.417 223.869 184.1 224.639 183.521 225.306C182.94 225.962 182.138 226.398 181.115 226.614C180.301 226.786 179.532 226.757 178.808 226.528C178.094 226.297 177.484 225.886 176.978 225.295C176.47 224.693 176.122 223.949 175.935 223.062C175.748 222.175 175.762 221.36 175.976 220.617C176.19 219.874 176.578 219.258 177.14 218.769C177.71 218.267 178.413 217.929 179.248 217.753C180.062 217.581 180.82 217.607 181.521 217.83C182.222 218.052 182.805 218.442 183.271 218.998C183.745 219.541 184.065 220.204 184.23 220.987ZM182.695 220.999C182.581 220.457 182.363 220.018 182.042 219.682C181.718 219.336 181.327 219.108 180.867 218.997C180.416 218.874 179.94 218.866 179.439 218.971C178.719 219.123 178.152 219.482 177.737 220.049C177.333 220.614 177.18 221.311 177.278 222.141L182.695 220.999ZM200.986 213.155C201.654 213.014 202.279 213.03 202.86 213.202C203.439 213.363 203.939 213.688 204.358 214.178C204.777 214.667 205.07 215.309 205.237 216.102L206.303 221.159L204.894 221.456L203.871 216.602C203.691 215.746 203.34 215.139 202.817 214.781C202.303 214.409 201.686 214.3 200.965 214.451C200.224 214.607 199.685 214.972 199.348 215.544C199.009 216.106 198.933 216.836 199.123 217.734L200.119 222.462L198.71 222.759L197.687 217.906C197.507 217.05 197.155 216.442 196.633 216.084C196.119 215.713 195.501 215.603 194.781 215.755C194.04 215.911 193.501 216.275 193.164 216.848C192.824 217.41 192.749 218.139 192.938 219.037L193.935 223.765L192.51 224.065L190.702 215.486L192.127 215.186L192.387 216.422C192.575 215.914 192.878 215.491 193.297 215.152C193.726 214.81 194.228 214.579 194.802 214.458C195.522 214.307 196.193 214.334 196.815 214.541C197.436 214.748 197.948 215.136 198.352 215.705C198.464 215.049 198.762 214.496 199.245 214.045C199.727 213.595 200.308 213.298 200.986 213.155ZM207.824 216.325C207.639 215.449 207.655 214.644 207.871 213.912C208.085 213.169 208.461 212.55 209 212.055C209.549 211.558 210.205 211.229 210.967 211.068C211.719 210.91 212.405 210.934 213.026 211.141C213.648 211.348 214.146 211.668 214.521 212.102L214.191 210.536L215.631 210.232L217.439 218.812L215.999 219.116L215.662 217.519C215.486 218.079 215.151 218.586 214.658 219.038C214.173 219.479 213.56 219.777 212.819 219.933C212.057 220.093 211.328 220.051 210.633 219.805C209.938 219.559 209.342 219.134 208.844 218.53C208.346 217.927 208.006 217.192 207.824 216.325ZM215.091 214.81C214.955 214.163 214.706 213.627 214.344 213.202C213.981 212.777 213.55 212.486 213.048 212.33C212.555 212.162 212.042 212.133 211.509 212.246C210.977 212.358 210.518 212.585 210.133 212.928C209.747 213.271 209.474 213.71 209.315 214.245C209.155 214.78 209.143 215.371 209.28 216.019C209.418 216.676 209.67 217.223 210.034 217.658C210.396 218.083 210.824 218.38 211.317 218.549C211.808 218.707 212.32 218.73 212.852 218.618C213.385 218.505 213.844 218.278 214.229 217.935C214.623 217.58 214.9 217.134 215.06 216.599C215.217 216.054 215.228 215.457 215.091 214.81ZM219.456 206.287L221.898 217.872L220.473 218.173L218.031 206.587L219.456 206.287ZM228.723 216.581C227.92 216.75 227.151 216.722 226.416 216.495C225.692 216.266 225.072 215.857 224.555 215.268C224.047 214.667 223.699 213.923 223.512 213.035C223.328 212.159 223.353 211.347 223.588 210.6C223.831 209.84 224.244 209.213 224.827 208.72C225.407 208.216 226.105 207.878 226.919 207.707C227.733 207.535 228.507 207.563 229.242 207.789C229.974 208.006 230.598 208.408 231.115 208.997C231.642 209.584 231.999 210.32 232.186 211.208C232.373 212.095 232.339 212.919 232.086 213.681C231.84 214.431 231.422 215.059 230.831 215.565C230.24 216.071 229.538 216.41 228.723 216.581ZM228.46 215.329C228.971 215.221 229.426 215 229.824 214.665C230.222 214.33 230.506 213.894 230.677 213.357C230.857 212.818 230.875 212.203 230.73 211.515C230.585 210.826 230.326 210.27 229.953 209.847C229.581 209.424 229.151 209.144 228.664 209.007C228.175 208.859 227.675 208.839 227.164 208.947C226.642 209.057 226.187 209.278 225.799 209.61C225.42 209.93 225.15 210.358 224.99 210.893C224.83 211.428 224.823 212.04 224.968 212.729C225.116 213.428 225.365 213.991 225.717 214.419C226.079 214.844 226.499 215.131 226.978 215.281C227.454 215.421 227.948 215.436 228.46 215.329ZM237.932 205.369C238.976 205.149 239.888 205.29 240.669 205.79C241.448 206.28 241.963 207.12 242.214 208.309L243.28 213.366L241.871 213.663L240.848 208.81C240.668 207.954 240.316 207.347 239.794 206.988C239.269 206.619 238.636 206.513 237.895 206.669C237.143 206.827 236.593 207.189 236.243 207.753C235.904 208.315 235.828 209.045 236.018 209.942L237.017 214.686L235.593 214.986L233.785 206.407L235.209 206.107L235.467 207.328C235.656 206.83 235.966 206.41 236.395 206.069C236.835 205.726 237.347 205.493 237.932 205.369ZM247.934 203.278C248.675 203.122 249.356 203.147 249.977 203.354C250.609 203.559 251.113 203.878 251.487 204.311L251.157 202.746L252.598 202.442L254.445 211.21C254.61 211.992 254.59 212.722 254.383 213.397C254.179 214.084 253.8 214.665 253.246 215.141C252.703 215.616 252.019 215.94 251.195 216.113C250.067 216.351 249.072 216.283 248.208 215.909C247.345 215.535 246.748 214.903 246.419 214.013L247.828 213.716C248.095 214.205 248.506 214.554 249.063 214.764C249.621 214.984 250.245 215.022 250.934 214.876C251.717 214.712 252.302 214.332 252.689 213.738C253.087 213.142 253.192 212.4 253.005 211.513L252.626 209.713C252.449 210.273 252.12 210.779 251.637 211.229C251.154 211.68 250.542 211.983 249.801 212.139C249.039 212.3 248.306 212.258 247.6 212.014C246.905 211.768 246.309 211.344 245.811 210.74C245.313 210.136 244.973 209.401 244.79 208.535C244.606 207.658 244.621 206.854 244.838 206.121C245.052 205.379 245.428 204.76 245.967 204.265C246.516 203.767 247.172 203.438 247.934 203.278ZM252.058 207.02C251.922 206.373 251.672 205.837 251.31 205.411C250.948 204.986 250.516 204.696 250.015 204.54C249.521 204.371 249.009 204.343 248.476 204.455C247.944 204.567 247.485 204.795 247.099 205.138C246.714 205.481 246.441 205.92 246.281 206.455C246.122 206.99 246.11 207.581 246.246 208.228C246.385 208.886 246.636 209.432 247.001 209.868C247.363 210.293 247.791 210.59 248.284 210.758C248.775 210.917 249.287 210.94 249.819 210.827C250.351 210.715 250.81 210.488 251.196 210.145C251.59 209.789 251.867 209.344 252.026 208.809C252.184 208.263 252.194 207.667 252.058 207.02ZM260.507 209.883C259.849 210.022 259.236 210.036 258.668 209.927C258.098 209.808 257.62 209.581 257.233 209.249C256.845 208.905 256.58 208.476 256.439 207.961L257.91 207.651C258.042 208.07 258.314 208.378 258.726 208.574C259.149 208.769 259.652 208.804 260.237 208.681C260.78 208.567 261.182 208.356 261.445 208.05C261.707 207.744 261.8 207.409 261.723 207.043C261.644 206.668 261.419 206.426 261.047 206.319C260.674 206.202 260.119 206.128 259.382 206.098C258.71 206.065 258.153 206.008 257.711 205.927C257.277 205.833 256.878 205.65 256.516 205.377C256.161 205.092 255.926 204.673 255.809 204.12C255.717 203.682 255.763 203.252 255.947 202.832C256.131 202.412 256.441 202.047 256.877 201.737C257.311 201.416 257.836 201.191 258.451 201.061C259.401 200.861 260.219 200.94 260.905 201.297C261.59 201.654 262.042 202.245 262.26 203.071L260.835 203.372C260.709 202.929 260.45 202.608 260.059 202.407C259.679 202.204 259.212 202.16 258.658 202.277C258.147 202.385 257.763 202.58 257.507 202.863C257.25 203.146 257.159 203.465 257.234 203.82C257.293 204.102 257.432 204.318 257.649 204.468C257.874 204.606 258.134 204.704 258.43 204.761C258.734 204.806 259.145 204.845 259.664 204.877C260.315 204.915 260.851 204.976 261.273 205.062C261.692 205.137 262.071 205.308 262.411 205.574C262.761 205.838 262.996 206.23 263.117 206.75C263.216 207.219 263.174 207.67 262.992 208.1C262.811 208.531 262.503 208.907 262.069 209.227C261.643 209.535 261.122 209.753 260.507 209.883ZM271.827 198.39L269.32 212.097L267.848 212.408L268.668 207.918L263.42 200.162L265.001 199.828L269.159 206.212L270.356 198.7L271.827 198.39Z" fill="#242424"/>
<path d="M134.897 190.341L224.919 171.369L226.157 177.24C228.662 189.13 221.055 200.799 209.166 203.304L119.143 222.275L117.906 216.404C115.401 204.515 123.007 192.846 134.897 190.341Z" fill="#E2B8E0"/>
<path d="M143.814 197.504L142.951 209.083L141.354 209.419L136.967 201.171L136.187 210.508L134.61 210.857L129.254 200.572L130.772 200.252L135.102 209.003L135.782 199.196L137.379 198.86L141.827 207.553L142.28 197.827L143.814 197.504ZM155.154 201.687C155.211 201.959 155.256 202.249 155.288 202.558L148.431 204.003C148.661 204.838 149.088 205.44 149.711 205.81C150.342 206.168 151.034 206.267 151.785 206.109C152.401 205.979 152.883 205.731 153.23 205.363C153.586 204.983 153.797 204.535 153.863 204.02L155.397 203.696C155.341 204.569 155.024 205.339 154.445 206.006C153.864 206.663 153.062 207.099 152.039 207.315C151.225 207.486 150.456 207.457 149.732 207.229C149.018 206.997 148.408 206.586 147.902 205.995C147.394 205.394 147.046 204.65 146.859 203.762C146.672 202.875 146.686 202.06 146.9 201.317C147.114 200.575 147.502 199.959 148.064 199.47C148.634 198.968 149.337 198.629 150.172 198.453C150.986 198.282 151.743 198.307 152.444 198.53C153.145 198.753 153.729 199.142 154.195 199.698C154.669 200.242 154.989 200.905 155.154 201.687ZM153.619 201.7C153.505 201.157 153.287 200.718 152.966 200.383C152.642 200.037 152.25 199.808 151.791 199.698C151.34 199.575 150.864 199.566 150.363 199.672C149.643 199.824 149.075 200.183 148.661 200.75C148.257 201.315 148.104 202.012 148.202 202.842L153.619 201.7ZM157.617 193.892L160.058 205.477L158.634 205.778L156.192 194.192L157.617 193.892ZM161.673 200.64C161.486 199.753 161.501 198.944 161.717 198.211C161.931 197.468 162.313 196.848 162.862 196.351C163.422 195.852 164.109 195.516 164.923 195.345C165.977 195.122 166.897 195.196 167.684 195.564C168.48 195.93 169.084 196.544 169.494 197.406L167.96 197.73C167.704 197.238 167.33 196.887 166.838 196.674C166.357 196.459 165.803 196.418 165.177 196.55C164.363 196.722 163.765 197.142 163.383 197.811C162.998 198.47 162.914 199.311 163.129 200.334C163.347 201.367 163.766 202.113 164.386 202.571C165.005 203.029 165.722 203.172 166.536 203C167.163 202.868 167.654 202.612 168.01 202.232C168.366 201.852 168.565 201.374 168.607 200.798L170.141 200.475C170.096 201.4 169.785 202.201 169.209 202.879C168.63 203.546 167.824 203.988 166.79 204.206C165.976 204.377 165.212 204.348 164.499 204.117C163.796 203.883 163.196 203.47 162.7 202.877C162.205 202.284 161.862 201.538 161.673 200.64ZM177.02 202.05C176.217 202.219 175.448 202.191 174.713 201.964C173.989 201.735 173.369 201.326 172.852 200.737C172.344 200.136 171.996 199.392 171.809 198.504C171.625 197.628 171.65 196.816 171.885 196.069C172.128 195.309 172.541 194.682 173.124 194.189C173.704 193.685 174.402 193.347 175.216 193.175C176.03 193.004 176.804 193.032 177.539 193.258C178.271 193.475 178.895 193.877 179.412 194.466C179.939 195.053 180.296 195.789 180.483 196.677C180.67 197.564 180.636 198.388 180.383 199.15C180.137 199.9 179.719 200.528 179.128 201.034C178.537 201.54 177.835 201.878 177.02 202.05ZM176.757 200.798C177.268 200.69 177.723 200.469 178.121 200.134C178.519 199.799 178.803 199.363 178.974 198.826C179.154 198.287 179.172 197.672 179.027 196.983C178.882 196.295 178.623 195.739 178.25 195.316C177.878 194.893 177.448 194.613 176.961 194.475C176.472 194.328 175.972 194.308 175.461 194.416C174.939 194.526 174.484 194.747 174.096 195.079C173.717 195.399 173.447 195.827 173.287 196.362C173.128 196.897 173.12 197.509 173.265 198.198C173.413 198.897 173.662 199.46 174.014 199.888C174.376 200.313 174.796 200.6 175.275 200.75C175.751 200.89 176.245 200.905 176.757 200.798ZM192.366 189.545C193.034 189.404 193.659 189.42 194.24 189.592C194.819 189.753 195.318 190.078 195.737 190.568C196.157 191.057 196.45 191.698 196.617 192.492L197.683 197.549L196.274 197.846L195.251 192.992C195.07 192.136 194.719 191.529 194.197 191.17C193.682 190.799 193.065 190.689 192.345 190.841C191.604 190.997 191.065 191.362 190.727 191.934C190.388 192.496 190.313 193.226 190.502 194.124L191.499 198.852L190.089 199.149L189.067 194.295C188.886 193.44 188.535 192.832 188.012 192.474C187.498 192.102 186.881 191.993 186.161 192.144C185.42 192.301 184.88 192.665 184.543 193.237C184.204 193.799 184.129 194.529 184.318 195.427L185.314 200.155L183.89 200.455L182.082 191.876L183.506 191.576L183.767 192.812C183.954 192.304 184.257 191.881 184.676 191.541C185.106 191.2 185.608 190.969 186.182 190.848C186.902 190.696 187.573 190.724 188.194 190.931C188.816 191.138 189.328 191.526 189.731 192.095C189.844 191.439 190.141 190.886 190.624 190.435C191.107 189.985 191.688 189.688 192.366 189.545ZM207.501 190.656C207.558 190.927 207.603 191.218 207.635 191.527L200.778 192.972C201.008 193.806 201.435 194.409 202.058 194.779C202.689 195.136 203.381 195.236 204.132 195.078C204.748 194.948 205.23 194.699 205.577 194.332C205.933 193.951 206.144 193.504 206.21 192.988L207.744 192.665C207.688 193.538 207.371 194.308 206.792 194.975C206.211 195.631 205.409 196.068 204.386 196.283C203.572 196.455 202.803 196.426 202.079 196.197C201.365 195.966 200.755 195.555 200.249 194.964C199.741 194.362 199.393 193.618 199.206 192.731C199.019 191.844 199.033 191.029 199.247 190.286C199.461 189.543 199.849 188.927 200.411 188.438C200.981 187.937 201.684 187.598 202.519 187.422C203.333 187.25 204.09 187.276 204.791 187.499C205.493 187.722 206.076 188.111 206.542 188.667C207.016 189.21 207.336 189.873 207.501 190.656ZM205.966 190.669C205.852 190.126 205.634 189.687 205.313 189.351C204.989 189.005 204.598 188.777 204.138 188.667C203.687 188.544 203.211 188.535 202.71 188.64C201.99 188.792 201.423 189.152 201.008 189.719C200.604 190.283 200.451 190.981 200.549 191.81L205.966 190.669ZM210.529 183.445L212.006 191.309L210.816 191.56L208.994 183.768L210.529 183.445ZM212.144 194.599C211.872 194.656 211.623 194.611 211.395 194.463C211.168 194.314 211.026 194.105 210.968 193.833C210.911 193.562 210.957 193.312 211.105 193.085C211.253 192.857 211.463 192.715 211.734 192.658C211.995 192.603 212.234 192.651 212.451 192.801C212.679 192.949 212.821 193.159 212.878 193.431C212.936 193.702 212.89 193.951 212.742 194.179C212.604 194.404 212.405 194.544 212.144 194.599Z" fill="#242424"/>
<path d="M134.897 190.341L224.919 171.369L226.157 177.24C228.662 189.13 221.055 200.799 209.166 203.304L119.143 222.275L117.906 216.404C115.401 204.515 123.007 192.846 134.897 190.341Z" stroke="#212121" stroke-width="4"/>
</g>
<defs>
<clipPath id="clip0_724_4188">
<rect width="390" height="844" fill="white"/>
</clipPath>
</defs>
</svg>
