<svg width="129" height="58" viewBox="0 0 129 58" fill="none" xmlns="http://www.w3.org/2000/svg">
<path d="M4.54995 55.8374C3.01598 42.6716 12.4454 30.7551 25.6112 29.2212L125.933 17.5326L126.164 19.5191C127.698 32.6849 118.269 44.6014 105.103 46.1354L4.7814 57.824L4.54995 55.8374Z" fill="#D3F36B"/>
<path d="M25.3988 37.9403L23.2958 43.4286L23.6611 46.5634L22.5764 46.6897L22.2112 43.555L18.8909 38.6986L20.0947 38.5583L22.6351 42.527L24.195 38.0806L25.3988 37.9403ZM30.8489 45.8346C30.237 45.9059 29.6646 45.8317 29.1315 45.6119C28.6065 45.3912 28.1713 45.0432 27.826 44.568C27.4877 44.0839 27.2792 43.5041 27.2005 42.8287C27.1227 42.1612 27.1972 41.5565 27.424 41.0146C27.6579 40.4638 28.0093 40.0242 28.4785 39.6957C28.9467 39.3593 29.4907 39.1549 30.1105 39.0827C30.7303 39.0105 31.3067 39.0843 31.8397 39.3041C32.3718 39.5159 32.8105 39.8595 33.1559 40.3347C33.5091 40.809 33.7251 41.3839 33.8038 42.0593C33.8825 42.7347 33.801 43.3483 33.5592 43.9C33.3244 44.4428 32.969 44.8829 32.4928 45.2203C32.0167 45.5576 31.4687 45.7624 30.8489 45.8346ZM30.7378 44.8811C31.1271 44.8357 31.482 44.7018 31.8024 44.4792C32.1228 44.2566 32.365 43.9505 32.529 43.5609C32.701 43.1704 32.7564 42.7129 32.6953 42.1885C32.6342 41.664 32.479 41.2311 32.2299 40.8896C31.9807 40.5481 31.679 40.3094 31.3249 40.1735C30.9699 40.0296 30.5977 39.9804 30.2083 40.0257C29.811 40.072 29.4561 40.206 29.1437 40.4277C28.8382 40.6404 28.6075 40.9412 28.4514 41.3298C28.2953 41.7185 28.2479 42.1751 28.309 42.6995C28.371 43.2319 28.5187 43.6698 28.752 44.0131C28.9932 44.3555 29.2874 44.5991 29.6345 44.7439C29.9806 44.8807 30.3484 44.9265 30.7378 44.8811ZM41.1204 37.9087L41.8814 44.4405L40.7968 44.5669L40.6843 43.6014C40.5166 43.9592 40.2571 44.2552 39.9058 44.4895C39.5616 44.7148 39.167 44.8534 38.722 44.9053C38.2134 44.9645 37.7445 44.9144 37.3152 44.7551C36.8849 44.5877 36.526 44.3074 36.2386 43.914C35.9591 43.5197 35.7841 43.0206 35.7138 42.4167L35.268 38.5906L36.3407 38.4656L36.7699 42.1487C36.8448 42.7923 37.0656 43.27 37.4321 43.5816C37.7977 43.8854 38.2626 44.0044 38.8268 43.9386C39.4069 43.871 39.843 43.639 40.1351 43.2426C40.4271 42.8461 40.5334 42.3062 40.4537 41.6228L40.0357 38.0351L41.1204 37.9087ZM44.6368 38.5742C44.784 38.1785 45.0204 37.857 45.346 37.6097C45.6795 37.3614 46.1005 37.2076 46.6091 37.1484L46.7396 38.2688L46.4535 38.3021C45.2378 38.4438 44.7067 39.1741 44.8604 40.4932L45.2743 44.0452L44.1896 44.1716L43.4286 37.6398L44.5132 37.5134L44.6368 38.5742ZM54.7685 37.2246L53.3978 37.3843L54.0546 43.0222L52.97 43.1486L52.3131 37.5107L51.4668 37.6093L51.3627 36.7153L52.209 36.6167L52.1548 36.1519C52.0696 35.4208 52.1943 34.8667 52.5289 34.4894C52.8705 34.1033 53.4585 33.8616 54.2929 33.7644L54.3984 34.6703C53.9216 34.7258 53.595 34.8605 53.4186 35.0744C53.2492 35.2794 53.1895 35.5964 53.2395 36.0255L53.2936 36.4904L54.6643 36.3307L54.7685 37.2246ZM62.7168 38.449C62.7409 38.6556 62.7544 38.8755 62.7574 39.1087L57.5368 39.717C57.6515 40.356 57.9288 40.8351 58.3687 41.1544C58.8156 41.4647 59.3251 41.5866 59.8973 41.5199C60.3661 41.4653 60.743 41.3127 61.0279 41.062C61.3198 40.8025 61.508 40.4825 61.5926 40.1022L62.7607 39.9661C62.659 40.6142 62.3691 41.1675 61.8909 41.6259C61.4118 42.0764 60.7829 42.347 60.0042 42.4377C59.3844 42.5099 58.812 42.4357 58.2869 42.215C57.7698 41.9933 57.3425 41.6444 57.0051 41.1683C56.6668 40.6842 56.4583 40.1044 56.3796 39.429C56.301 38.7535 56.3671 38.1458 56.578 37.6058C56.7889 37.0657 57.121 36.6324 57.5742 36.3057C58.0345 35.9702 58.5825 35.7654 59.2182 35.6914C59.838 35.6191 60.402 35.6903 60.9103 35.905C61.4185 36.1196 61.8276 36.4505 62.1374 36.8976C62.4542 37.3359 62.6474 37.853 62.7168 38.449ZM61.57 38.3531C61.5219 37.9399 61.3893 37.5969 61.1723 37.3242C60.9543 37.0435 60.6776 36.8462 60.3422 36.7323C60.0138 36.6094 59.6588 36.5703 59.2774 36.6147C58.7291 36.6786 58.2807 36.908 57.932 37.303C57.5914 37.6971 57.4293 38.2073 57.4459 38.8336L61.57 38.3531ZM70.585 37.5323C70.6091 37.7389 70.6226 37.9588 70.6256 38.192L65.4049 38.8003C65.5197 39.4393 65.797 39.9184 66.2369 40.2376C66.6838 40.548 67.1933 40.6698 67.7654 40.6032C68.2343 40.5486 68.6111 40.3959 68.8961 40.1453C69.188 39.8857 69.3762 39.5658 69.4608 39.1855L70.6289 39.0494C70.5272 39.6975 70.2373 40.2508 69.7591 40.7092C69.28 41.1596 68.6511 41.4302 67.8724 41.521C67.2526 41.5932 66.6801 41.5189 66.1551 41.2982C65.6379 41.0766 65.2107 40.7277 64.8733 40.2515C64.535 39.7674 64.3265 39.1877 64.2478 38.5122C64.1691 37.8368 64.2352 37.2291 64.4462 36.689C64.6571 36.149 64.9892 35.7156 65.4424 35.389C65.9027 35.0535 66.4507 34.8487 67.0864 34.7746C67.7062 34.7024 68.2702 34.7736 68.7784 34.9882C69.2867 35.2029 69.6957 35.5337 70.0056 35.9809C70.3224 36.4192 70.5156 36.9363 70.585 37.5323ZM69.4382 37.4363C69.39 37.0231 69.2575 36.6802 69.0404 36.4074C68.8225 36.1268 68.5458 35.9295 68.2104 35.8155C67.8819 35.6927 67.527 35.6535 67.1456 35.698C66.5973 35.7618 66.1489 35.9913 65.8002 36.3863C65.4595 36.7804 65.2975 37.2905 65.3141 37.9168L69.4382 37.4363ZM72.1146 37.5836C72.0369 36.9161 72.1039 36.3163 72.3157 35.7842C72.5267 35.2442 72.8503 34.8078 73.2868 34.475C73.7311 34.1414 74.2473 33.9403 74.8353 33.8718C75.3439 33.8125 75.8306 33.8766 76.2954 34.0641C76.7593 34.2436 77.1287 34.5107 77.4036 34.8652L77.0008 31.4086L78.0974 31.2808L79.1251 40.1012L78.0285 40.2289L77.8855 39.0013C77.7163 39.4156 77.4359 39.7745 77.0444 40.0778C76.652 40.3732 76.1736 40.5538 75.6095 40.6195C75.0294 40.6871 74.4843 40.6056 73.9742 40.3751C73.472 40.1437 73.0558 39.7855 72.7254 39.3004C72.3951 38.8154 72.1915 38.2431 72.1146 37.5836ZM77.6466 36.9511C77.5892 36.4585 77.4399 36.0409 77.1986 35.6985C76.9574 35.3562 76.6548 35.1095 76.2909 34.9586C75.934 34.7989 75.5529 34.7426 75.1477 34.7898C74.7424 34.837 74.384 34.9754 74.0725 35.205C73.761 35.4346 73.5272 35.7437 73.3711 36.1324C73.2151 36.5211 73.1657 36.9618 73.2231 37.4544C73.2815 37.955 73.4317 38.3805 73.6739 38.7308C73.9151 39.0732 74.2142 39.3243 74.5711 39.4841C74.927 39.6359 75.3076 39.6882 75.7129 39.641C76.1182 39.5938 76.4765 39.4554 76.7881 39.2258C77.1066 38.9873 77.3439 38.6737 77.5 38.285C77.6551 37.8884 77.704 37.4438 77.6466 36.9511ZM81.9001 34.3897C82.0772 33.9744 82.366 33.6186 82.7664 33.3222C83.1668 33.0259 83.6411 32.8458 84.1894 32.7819C84.7775 32.7134 85.3221 32.7909 85.8233 33.0144C86.3246 33.2379 86.7399 33.5882 87.0693 34.0653C87.3978 34.5344 87.6009 35.1027 87.6787 35.7702C87.7556 36.4297 87.689 37.0335 87.479 37.5815C87.269 38.1294 86.9423 38.5742 86.4988 38.9159C86.0633 39.2566 85.5555 39.4607 84.9755 39.5283C84.4113 39.594 83.9003 39.5287 83.4425 39.3324C82.9926 39.1351 82.6382 38.8583 82.3792 38.5018L82.5195 39.7057L81.4348 39.8321L80.4072 31.0117L81.4918 30.8854L81.9001 34.3897ZM86.5702 35.8993C86.5128 35.4067 86.3635 34.9891 86.1222 34.6468C85.881 34.3044 85.5784 34.0577 85.2145 33.9068C84.8586 33.755 84.4779 33.7027 84.0727 33.7499C83.6754 33.7962 83.3174 33.9386 82.9989 34.1771C82.6874 34.4067 82.4501 34.7202 82.287 35.1178C82.1309 35.5064 82.0811 35.9431 82.1376 36.4279C82.195 36.9205 82.3448 37.342 82.587 37.6924C82.8361 38.0338 83.1392 38.2844 83.4961 38.4442C83.86 38.5951 84.2406 38.6474 84.6379 38.6011C85.0432 38.5539 85.4016 38.4155 85.7131 38.1859C86.0316 37.9474 86.2689 37.6339 86.425 37.2452C86.5801 36.8486 86.6285 36.3999 86.5702 35.8993ZM89.1779 35.5955C89.1002 34.928 89.1672 34.3282 89.3791 33.7961C89.59 33.2561 89.9137 32.8197 90.3501 32.487C90.7944 32.1533 91.3067 31.9527 91.8867 31.8851C92.4589 31.8184 92.9699 31.8837 93.4197 32.081C93.8696 32.2783 94.2196 32.5516 94.4697 32.901L94.3308 31.7091L95.4274 31.5813L96.1884 38.1131L95.0918 38.2409L94.9502 37.0251C94.7801 37.4315 94.4953 37.7869 94.0958 38.0911C93.7034 38.3865 93.225 38.5671 92.6609 38.6328C92.0808 38.7004 91.5397 38.6185 91.0375 38.3871C90.5353 38.1556 90.1191 37.7974 89.7887 37.3124C89.4584 36.8273 89.2548 36.255 89.1779 35.5955ZM94.7099 34.963C94.6525 34.4704 94.5032 34.0529 94.262 33.7105C94.0207 33.3681 93.7181 33.1214 93.3542 32.9706C92.9973 32.8108 92.6163 32.7545 92.211 32.8017C91.8057 32.8489 91.4474 32.9873 91.1358 33.2169C90.8243 33.4465 90.5905 33.7557 90.4345 34.1443C90.2784 34.533 90.229 34.9737 90.2865 35.4663C90.3448 35.967 90.495 36.3924 90.7372 36.7428C90.9784 37.0851 91.2775 37.3362 91.6344 37.496C91.9904 37.6478 92.371 37.7001 92.7762 37.6529C93.1815 37.6057 93.5399 37.4673 93.8514 37.2377C94.1699 36.9992 94.4072 36.6856 94.5633 36.297C94.7185 35.9004 94.7673 35.4557 94.7099 34.963ZM97.711 34.6134C97.6323 33.938 97.6989 33.3342 97.9107 32.8021C98.1216 32.2621 98.4493 31.8252 98.8937 31.4915C99.346 31.1569 99.882 30.9535 100.502 30.8813C101.304 30.7878 101.987 30.9057 102.549 31.2348C103.118 31.5631 103.527 32.0632 103.774 32.7351L102.606 32.8712C102.449 32.4868 102.194 32.1984 101.841 32.0059C101.496 31.8125 101.086 31.7436 100.609 31.7991C99.989 31.8713 99.5134 32.1442 99.1819 32.6177C98.8496 33.0833 98.7288 33.7055 98.8195 34.4842C98.9112 35.2709 99.1727 35.8566 99.6041 36.2412C100.036 36.6259 100.561 36.7821 101.181 36.7099C101.658 36.6544 102.042 36.4968 102.334 36.2373C102.626 35.9778 102.807 35.6344 102.878 35.2074L104.047 35.0713C103.95 35.7591 103.662 36.3362 103.185 36.8026C102.707 37.261 102.075 37.536 101.288 37.6277C100.668 37.6999 100.1 37.6252 99.5825 37.4036C99.0733 37.181 98.654 36.8312 98.3246 36.3541C97.9951 35.877 97.7906 35.2968 97.711 34.6134ZM109.862 36.5199L106.964 33.934L107.3 36.8185L106.215 36.9449L105.187 28.1246L106.272 27.9982L106.876 33.1831L109.054 29.9937L110.567 29.8173L107.871 33.4296L111.34 36.3477L109.862 36.5199Z" fill="#242424"/>
<path d="M24.0702 10.6661L96.5797 2.21792C97.9858 14.2865 89.3422 25.21 77.2736 26.6161L4.76405 35.0643C3.35792 22.9957 12.0016 12.0722 24.0702 10.6661Z" fill="#E2B8E0"/>
<path d="M22.9231 17.4806L23.0259 18.3627L20.7612 18.6265L21.6264 26.0523L20.5417 26.1787L19.6766 18.7529L17.4 19.0182L17.2972 18.1361L22.9231 17.4806ZM28.1702 18.5486C28.6628 18.4912 29.1203 18.5466 29.5426 18.7149C29.964 18.8752 30.3105 19.1529 30.582 19.5482C30.8616 19.9425 31.0365 20.4416 31.1069 21.0455L31.5554 24.8955L30.4827 25.0204L30.0522 21.3254C29.9763 20.6738 29.7555 20.1962 29.3899 19.8925C29.0233 19.5808 28.558 19.4578 27.9938 19.5235C27.4217 19.5902 26.9856 19.8222 26.6856 20.2196C26.3935 20.6161 26.2873 21.156 26.3669 21.8394L26.7877 25.451L25.703 25.5773L24.6753 16.757L25.76 16.6306L26.135 19.8488C26.3106 19.4901 26.5746 19.1976 26.9267 18.9713C27.2869 18.7441 27.7013 18.6032 28.1702 18.5486ZM33.0154 21.3909C32.9377 20.7235 33.0047 20.1237 33.2166 19.5916C33.4275 19.0515 33.7511 18.6151 34.1876 18.2824C34.6319 17.9487 35.1442 17.7481 35.7242 17.6805C36.2964 17.6139 36.8074 17.6792 37.2572 17.8764C37.7071 18.0737 38.057 18.347 38.3072 18.6964L38.1683 17.5045L39.2649 17.3767L40.0259 23.9085L38.9293 24.0363L38.7877 22.8205C38.6176 23.227 38.3328 23.5823 37.9333 23.8866C37.5409 24.182 37.0625 24.3625 36.4984 24.4283C35.9183 24.4959 35.3772 24.4139 34.875 24.1825C34.3728 23.9511 33.9566 23.5928 33.6262 23.1078C33.2959 22.6228 33.0923 22.0505 33.0154 21.3909ZM38.5474 20.7585C38.49 20.2658 38.3407 19.8483 38.0995 19.5059C37.8582 19.1635 37.5556 18.9169 37.1917 18.766C36.8348 18.6062 36.4538 18.5499 36.0485 18.5972C35.6432 18.6444 35.2849 18.7828 34.9733 19.0124C34.6618 19.242 34.428 19.5511 34.2719 19.9398C34.1159 20.3285 34.0665 20.7691 34.1239 21.2618C34.1823 21.7624 34.3325 22.1879 34.5747 22.5382C34.8159 22.8806 35.115 23.1317 35.4719 23.2914C35.8279 23.4433 36.2085 23.4956 36.6137 23.4483C37.019 23.4011 37.3774 23.2627 37.6889 23.0331C38.0074 22.7947 38.2447 22.4811 38.4008 22.0924C38.5559 21.6958 38.6048 21.2512 38.5474 20.7585ZM44.7432 16.6176C45.5378 16.525 46.2097 16.6924 46.7589 17.1197C47.3071 17.5391 47.634 18.2017 47.7395 19.1076L48.1881 22.9576L47.1153 23.0825L46.6848 19.3875C46.6089 18.736 46.3881 18.2583 46.0225 17.9546C45.656 17.6429 45.1906 17.5199 44.6265 17.5856C44.0543 17.6523 43.6182 17.8843 43.3182 18.2817C43.0261 18.6782 42.9199 19.2181 42.9995 19.9015L43.4203 23.5131L42.3357 23.6394L41.5746 17.1076L42.6593 16.9812L42.7676 17.911C42.9433 17.5522 43.2032 17.2602 43.5475 17.0348C43.8996 16.8085 44.2982 16.6695 44.7432 16.6176ZM54.084 22.2706L51.1852 19.6847L51.5213 22.5692L50.4366 22.6956L49.409 13.8752L50.4936 13.7489L51.0977 18.9338L53.2753 15.7444L54.789 15.568L52.0929 19.1803L55.562 22.0984L54.084 22.2706ZM59.3726 21.7632C58.8719 21.8215 58.4133 21.7904 57.9965 21.6698C57.5788 21.5413 57.2372 21.3394 56.9715 21.0643C56.705 20.7813 56.5367 20.4425 56.4665 20.048L57.587 19.9174C57.6567 20.2395 57.8387 20.4881 58.1329 20.6632C58.4351 20.8374 58.8087 20.8986 59.2537 20.8468C59.6669 20.7986 59.9821 20.6693 60.1992 20.4587C60.4162 20.2482 60.5086 20.0039 60.4762 19.7258C60.4429 19.4397 60.2912 19.2439 60.0212 19.1385C59.7502 19.0251 59.3407 18.9318 58.7925 18.8588C58.293 18.7881 57.8809 18.7073 57.5562 18.6162C57.2385 18.5163 56.9536 18.3522 56.7014 18.1238C56.4563 17.8866 56.3092 17.5574 56.2602 17.1363C56.2213 16.8025 56.285 16.485 56.4512 16.1838C56.6175 15.8825 56.8741 15.6311 57.2211 15.4296C57.5672 15.2201 57.9747 15.0881 58.4435 15.0335C59.1666 14.9492 59.7719 15.0639 60.2595 15.3776C60.7471 15.6913 61.0438 16.1641 61.1497 16.7961L60.065 16.9225C60.0014 16.5836 59.8304 16.3257 59.552 16.1487C59.2816 15.9708 58.9358 15.9064 58.5147 15.9554C58.1253 16.0008 57.8251 16.1203 57.6141 16.3141C57.4031 16.5078 57.3134 16.7397 57.3448 17.0099C57.3698 17.2244 57.4582 17.3954 57.61 17.5227C57.7687 17.6411 57.9565 17.732 58.1733 17.7953C58.3971 17.8498 58.7018 17.9069 59.0873 17.9667C59.5709 18.0392 59.9672 18.1219 60.276 18.2148C60.5839 18.2997 60.8555 18.4533 61.0908 18.6756C61.334 18.8969 61.4828 19.2058 61.537 19.6022C61.5787 19.9597 61.5168 20.2931 61.3515 20.6023C61.1862 20.9116 60.9305 21.1709 60.5844 21.3804C60.2453 21.5809 59.8414 21.7085 59.3726 21.7632ZM69.4075 14.7709L68.0368 14.9306L68.6937 20.5684L67.609 20.6948L66.9521 15.0569L66.1059 15.1555L66.0017 14.2616L66.848 14.163L66.7938 13.6981C66.7086 12.9671 66.8333 12.4129 67.1679 12.0357C67.5095 11.6495 68.0975 11.4079 68.9319 11.3107L69.0374 12.2165C68.5606 12.2721 68.234 12.4068 68.0576 12.6206C67.8882 12.8256 67.8285 13.1427 67.8785 13.5718L67.9326 14.0366L69.3034 13.8769L69.4075 14.7709ZM74.6671 19.9812C74.0552 20.0525 73.4828 19.9782 72.9497 19.7584C72.4247 19.5377 71.9895 19.1897 71.6442 18.7145C71.3059 18.2304 71.0974 17.6506 71.0187 16.9752C70.9409 16.3077 71.0154 15.703 71.2422 15.1611C71.4761 14.6104 71.8276 14.1708 72.2967 13.8423C72.7649 13.5058 73.3089 13.3015 73.9287 13.2293C74.5485 13.1571 75.1249 13.2308 75.6579 13.4506C76.19 13.6625 76.6287 14.006 76.9741 14.4812C77.3273 14.9555 77.5433 15.5304 77.622 16.2058C77.7007 16.8813 77.6192 17.4948 77.3774 18.0465C77.1426 18.5893 76.7872 19.0294 76.311 19.3668C75.8349 19.7042 75.2869 19.909 74.6671 19.9812ZM74.556 19.0276C74.9453 18.9823 75.3002 18.8483 75.6206 18.6257C75.941 18.4032 76.1832 18.0971 76.3472 17.7075C76.5192 17.3169 76.5746 16.8595 76.5135 16.335C76.4524 15.8105 76.2972 15.3776 76.0481 15.0361C75.7989 14.6947 75.4972 14.456 75.1431 14.3201C74.7881 14.1762 74.4159 14.1269 74.0265 14.1723C73.6292 14.2186 73.2743 14.3525 72.9619 14.5742C72.6564 14.787 72.4257 15.0877 72.2696 15.4764C72.1135 15.865 72.0661 16.3216 72.1272 16.8461C72.1892 17.3785 72.3369 17.8163 72.5702 18.1596C72.8114 18.502 73.1056 18.7456 73.4527 18.8904C73.7988 19.0273 74.1666 19.073 74.556 19.0276ZM80.354 13.6646C80.5012 13.2689 80.7376 12.9474 81.0632 12.7C81.3967 12.4518 81.8177 12.298 82.3263 12.2388L82.4568 13.3592L82.1708 13.3925C80.955 13.5342 80.4239 14.2645 80.5776 15.5836L80.9915 19.1356L79.9068 19.262L79.1458 12.7301L80.2304 12.6038L80.354 13.6646Z" fill="#242424"/>
<path d="M24.0702 10.6661L96.5797 2.21792C97.9858 14.2865 89.3422 25.21 77.2736 26.6161L4.76405 35.0643C3.35792 22.9957 12.0016 12.0722 24.0702 10.6661Z" stroke="#FBFAF8" stroke-width="4"/>
</svg>
