<svg width="24" height="24" viewBox="0 0 24 24" fill="none" xmlns="http://www.w3.org/2000/svg">
<path fill-rule="evenodd" clip-rule="evenodd" d="M4.59182 15.3042C2.34396 9.78675 6.40306 3.75 12.3609 3.75H12.6823C17.1379 3.75 20.7499 7.36201 20.7499 11.8176C20.7499 16.7785 16.7284 20.8 11.7676 20.8H3.94731C3.62905 20.8 3.34545 20.5991 3.23982 20.2989C3.13419 19.9987 3.22954 19.6645 3.47769 19.4652L5.44918 17.8819C5.53538 17.8127 5.56587 17.6951 5.52416 17.5927L4.59182 15.3042ZM12.3609 5.25C7.46834 5.25 4.13502 10.2074 5.98096 14.7383L6.9133 17.0268C7.2053 17.7435 6.99184 18.5669 6.38842 19.0515L6.07897 19.3H11.7676C15.9 19.3 19.2499 15.95 19.2499 11.8176C19.2499 8.19044 16.3095 5.25 12.6823 5.25H12.3609Z" fill="#DEDEDE"/>
<g clip-path="url(#clip0_1481_5493)">
<path d="M11.0417 12.3906C11.0417 12.8131 10.6986 13.1562 10.2761 13.1562C9.85366 13.1562 9.5105 12.8131 9.5105 12.3906C9.5105 11.9682 9.85366 11.625 10.2761 11.625C10.6986 11.625 11.0417 11.9682 11.0417 12.3906ZM13.2292 12.3906C13.2292 12.8131 12.8861 13.1562 12.4636 13.1562C12.0412 13.1562 11.698 12.8131 11.698 12.3906C11.698 11.9682 12.0412 11.625 12.4636 11.625C12.8861 11.625 13.2292 11.9682 13.2292 12.3906ZM14.6511 13.1562C14.2287 13.1562 13.8855 12.8131 13.8855 12.3906C13.8855 11.9682 14.2287 11.625 14.6511 11.625C15.0736 11.625 15.4167 11.9682 15.4167 12.3906C15.4167 12.8131 15.0736 13.1562 14.6511 13.1562Z" fill="#DEDEDE"/>
</g>
<defs>
<clipPath id="clip0_1481_5493">
<rect width="7" height="7" fill="white" transform="translate(16 9) rotate(90)"/>
</clipPath>
</defs>
</svg>
