<svg width="29" height="32" viewBox="0 0 29 32" fill="none" xmlns="http://www.w3.org/2000/svg">
<path d="M9.6478 27.9368C13.3652 31.6542 18.0661 31.3787 21.4329 28.0119C23.9747 25.4701 24.5758 22.8094 23.6301 19.6059C23.1307 17.5401 21.9544 15.2466 20.8772 13.2288C20.344 12.2072 19.6938 10.8811 19.2827 10.4173C18.8226 9.89597 18.1467 9.87418 17.621 10.3409C17.024 10.8682 17.0053 11.5538 17.3911 12.6687L18.7115 16.3125C18.8533 16.6643 18.8224 16.8734 18.6998 17.0056C18.543 17.1527 18.3469 17.1783 18.0729 16.9043L9.31427 8.14566C8.78951 7.61879 7.94296 7.61879 7.41819 8.14355C6.88592 8.67582 6.88592 9.51488 7.42029 10.0493L13.7789 16.41C13.4911 16.5443 13.1915 16.7074 12.8941 16.9153L5.54576 9.56691C5.01139 9.03253 4.17444 9.03253 3.64217 9.56691C3.1078 10.0917 3.1078 10.9383 3.64217 11.4609L10.9064 18.7273C10.6793 18.9916 10.4672 19.2656 10.2689 19.5492L3.60983 12.8879C3.07756 12.3674 2.23428 12.3653 1.70413 12.8879C1.17187 13.4181 1.17397 14.2615 1.70413 14.7937L8.9299 22.0195C8.79561 22.3884 8.70397 22.7594 8.62194 23.1112L3.59038 18.0818C3.05811 17.5474 2.21905 17.5453 1.68679 18.0776C1.16413 18.6023 1.16413 19.4509 1.68679 19.9757L9.6478 27.9368ZM15.8686 10.2223L13.7899 8.14566C13.2534 7.61879 12.4069 7.6209 11.8842 8.14355C11.8587 8.1691 11.8385 8.18926 11.8226 8.22863L15.7643 12.1779C15.6891 11.4703 15.7085 10.8235 15.8686 10.2223ZM25.8989 28.0216C28.4386 25.4702 29.0418 22.7997 28.1057 19.5963C27.5925 17.5401 26.4204 15.2562 25.3411 13.2288C24.8217 12.2093 24.1598 10.8811 23.7487 10.4269C23.2886 9.90769 22.6202 9.87628 22.087 10.3409C21.866 10.5164 21.7268 10.7356 21.6501 10.977C21.948 11.5397 22.2384 12.1141 22.5384 12.6673C23.5676 14.621 24.7872 17.0386 25.2855 19.226C26.3721 23.0911 25.5206 26.3496 22.6359 29.215C22.1278 29.7327 21.5887 30.1706 21.0262 30.554C22.7747 30.3218 24.4666 29.4464 25.8989 28.0216Z" fill="#FCC638"/>
<path d="M18.4146 8.29641C18.6328 8.29641 18.7882 8.15485 18.8041 7.92493C19.1334 5.22164 19.2539 5.145 22.0263 4.69102C22.27 4.66547 22.4095 4.53141 22.4095 4.31321C22.4095 4.11094 22.27 3.97688 22.0753 3.93961C19.271 3.39633 19.1334 3.4186 18.8041 0.711096C18.7882 0.485393 18.6328 0.343831 18.4146 0.343831C18.2219 0.343831 18.0665 0.485393 18.0506 0.699377C17.6936 3.46219 17.6083 3.54211 14.7815 3.93961C14.5889 3.96516 14.4452 4.11094 14.4452 4.31321C14.4452 4.51969 14.5825 4.66125 14.7794 4.69102C17.6125 5.25563 17.684 5.23547 18.0506 7.95047C18.0665 8.15485 18.224 8.29641 18.4146 8.29641ZM10.2942 5.15766C10.4411 5.15766 10.5412 5.0768 10.5764 4.91813C10.8759 3.19406 10.878 3.18445 12.6159 2.86688C12.7788 2.82961 12.881 2.73164 12.881 2.58469C12.881 2.42391 12.7788 2.32594 12.6222 2.29078C10.8717 1.94133 10.9176 1.93594 10.5764 0.251249C10.5412 0.0904684 10.4508 0 10.2942 0C10.143 0 10.0333 0.100078 10.012 0.24914C9.66443 1.9507 9.71248 1.96242 7.96826 2.29078C7.79787 2.32383 7.7074 2.43352 7.7074 2.58469C7.7074 2.72203 7.79576 2.82961 7.96615 2.86688C9.71248 3.21422 9.70076 3.2025 10.012 4.92024C10.0333 5.06719 10.143 5.15766 10.2942 5.15766ZM3.42562 31.8035C3.60867 31.8035 3.7214 31.6833 3.74695 31.4981C4.16156 29.2033 4.15195 29.1649 6.54586 28.7184C6.73734 28.6694 6.85546 28.5705 6.85546 28.3779C6.85546 28.1852 6.73734 28.0863 6.5564 28.0469C4.14773 27.5665 4.19367 27.5322 3.74695 25.2597C3.7214 25.0725 3.60867 24.9522 3.42562 24.9522C3.24469 24.9522 3.13406 25.0725 3.0968 25.2576C2.64797 27.5512 2.71523 27.5939 0.301171 28.0469C0.120234 28.0842 0 28.1852 0 28.3779C0 28.5705 0.118124 28.6694 0.299061 28.7184C2.71523 29.1893 2.68008 29.216 3.0968 31.5044C3.13406 31.6833 3.24469 31.8035 3.42562 31.8035Z" fill="#979796"/>
</svg>
