<svg width="24" height="24" viewBox="0 0 24 24" fill="none" xmlns="http://www.w3.org/2000/svg">
<mask id="mask0_117_11424" style="mask-type:alpha" maskUnits="userSpaceOnUse" x="0" y="0" width="24" height="24">
<rect width="24" height="24" fill="#D9D9D9"/>
</mask>
<g mask="url(#mask0_117_11424)">
<path d="M5.3855 14.1944C5.73533 14.0463 6.09436 13.9304 6.4626 13.8467C6.83084 13.7637 7.20829 13.7037 7.59494 13.6667V7.08333L4.14269 9L3.01036 7.05556L7.26352 4.58333C7.70541 5.49074 8.35462 6.21296 9.21114 6.75C10.0669 7.28704 11.0012 7.55556 12.0138 7.55556C13.0265 7.55556 13.9611 7.28704 14.8176 6.75C15.6734 6.21296 16.3222 5.49074 16.7641 4.58333L20.9896 7.05556L19.8849 9L16.4327 7.08333V18C16.5063 17.963 16.5892 17.9167 16.6812 17.8611C16.7733 17.8056 16.8469 17.7593 16.9022 17.7222L18.6421 16.1944V10.8611L20.7135 12L24 6.25L16.7365 2H15.328C15.0334 2.88889 14.6835 3.66667 14.2785 4.33333C13.8734 5 13.1185 5.33333 12.0138 5.33333C10.9091 5.33333 10.1542 5 9.74914 4.33333C9.34407 3.66667 8.99425 2.88889 8.69965 2H7.29114L0 6.22222L3.31415 12L5.3855 10.8611V14.1944ZM3.89413 20.1944L2.458 18.5L4.86076 16.4444C5.28424 16.0741 5.76773 15.7919 6.31125 15.5978C6.85404 15.403 7.42002 15.3056 8.00921 15.3056C8.59839 15.3056 9.15995 15.403 9.6939 15.5978C10.2278 15.7919 10.7066 16.0741 11.13 16.4444L14.3337 19.1944C14.5547 19.3796 14.8168 19.5233 15.1203 19.6256C15.4244 19.727 15.733 19.7778 16.046 19.7778C16.3774 19.7778 16.686 19.7315 16.9718 19.6389C17.2568 19.5463 17.5098 19.3981 17.7307 19.1944L20.1335 17.1111L21.5696 18.8333L19.1669 20.8889C18.7434 21.2593 18.2647 21.537 17.7307 21.7222C17.1968 21.9074 16.6352 22 16.046 22C15.4568 22 14.8909 21.9074 14.3481 21.7222C13.8046 21.537 13.3211 21.2593 12.8976 20.8889L9.6939 18.1389C9.47296 17.9537 9.21998 17.81 8.93496 17.7078C8.64921 17.6063 8.34062 17.5556 8.00921 17.5556C7.6962 17.5556 7.38762 17.6063 7.08345 17.7078C6.78002 17.81 6.51784 17.9537 6.29689 18.1389L3.89413 20.1944Z" fill="#1C1B1F"/>
</g>
</svg>
