<svg width="24" height="20" viewBox="0 0 24 20" fill="none" xmlns="http://www.w3.org/2000/svg">
<path d="M5.6611 12.1031V8.90865L3.67606 10.0001L0.5 4.46304L7.48734 0.416748H8.83717C9.11949 1.2686 9.45474 2.01397 9.84292 2.65286C10.2311 3.29175 10.9545 3.61119 12.0132 3.61119C13.0719 3.61119 13.7954 3.29175 14.1835 2.65286C14.5717 2.01397 14.907 1.2686 15.1893 0.416748H16.5391L23.5 4.48966L20.3504 10.0001L18.3654 8.90865V14.0198L16.6979 15.4839C16.5744 15.5904 16.4333 15.6748 16.2745 15.7373C16.1157 15.7991 15.9568 15.8299 15.798 15.8299C15.6922 15.8299 15.5687 15.7945 15.4275 15.7235C15.2863 15.6525 15.1452 15.5637 15.004 15.4573L12.1985 13.0348C11.6339 12.5379 10.9987 12.1741 10.2929 11.9434C9.58707 11.7127 8.87246 11.5973 8.14902 11.5973C7.72555 11.5973 7.30631 11.6374 6.8913 11.7176C6.477 11.7971 6.06694 11.9256 5.6611 12.1031ZM4.23188 17.8531L2.85558 16.2293L5.15823 14.2593C5.56406 13.9044 6.02741 13.6339 6.54829 13.448C7.06845 13.2613 7.61086 13.1679 8.17549 13.1679C8.74012 13.1679 9.27829 13.2613 9.78999 13.448C10.3017 13.6339 10.7605 13.9044 11.1663 14.2593L14.2365 16.8948C14.4482 17.0722 14.6995 17.2099 14.9903 17.3079C15.2818 17.4052 15.5775 17.4538 15.8774 17.4538C16.1951 17.4538 16.4908 17.4094 16.7646 17.3207C17.0378 17.232 17.2802 17.09 17.4919 16.8948L19.7946 14.8982L21.1709 16.5487L18.8682 18.5186C18.4624 18.8735 18.0036 19.1397 17.4919 19.3172C16.9802 19.4947 16.4421 19.5834 15.8774 19.5834C15.3128 19.5834 14.7704 19.4947 14.2502 19.3172C13.7294 19.1397 13.266 18.8735 12.8602 18.5186L9.78999 15.8832C9.57825 15.7057 9.33581 15.568 9.06267 15.47C8.78882 15.3728 8.4931 15.3242 8.17549 15.3242C7.87553 15.3242 7.5798 15.3728 7.28831 15.47C6.99752 15.568 6.74626 15.7057 6.53452 15.8832L4.23188 17.8531Z" fill="#D3F36B"/>
</svg>
