<svg width="25" height="24" viewBox="0 0 25 24" fill="none" xmlns="http://www.w3.org/2000/svg">
<path d="M9.28571 7.90625V9.875H15.7143V7.90625C15.7143 6.09336 14.2759 4.625 12.5 4.625C10.7241 4.625 9.28571 6.09336 9.28571 7.90625ZM6.71429 9.875V7.90625C6.71429 4.64551 9.3058 2 12.5 2C15.6942 2 18.2857 4.64551 18.2857 7.90625V9.875H18.9286C20.3469 9.875 21.5 11.0521 21.5 12.5V20.375C21.5 21.8229 20.3469 23 18.9286 23H6.07143C4.65313 23 3.5 21.8229 3.5 20.375V12.5C3.5 11.0521 4.65313 9.875 6.07143 9.875H6.71429Z" fill="#3A3A3A"/>
</svg>
