<svg width="390" height="844" viewBox="0 0 390 844" fill="none" xmlns="http://www.w3.org/2000/svg">
<defs>
<clipPath id="clip0_986_4595">
<rect width="390" height="844" fill="white"/>
</clipPath>
<clipPath id="clip1_986_4595">
<rect width="156.77" height="60.24" fill="white" transform="translate(32 129)"/>
</clipPath>
<clipPath id="clip2_986_4595">
<rect width="109.67" height="63.82" fill="white" transform="translate(226.782 82.1182) rotate(3.06033)"/>
</clipPath>
</defs>
<g clip-path="url(#clip0_986_4595)">
<rect width="390" height="844" fill="#E2B8E0"/>
<path d="M0 0H390V630C390 675.287 353.287 712 308 712H0V0Z" fill="#242424"/>
<path d="M401 910L-9.00003 910C-9.00002 800.648 79.6476 712 189 712L203 712C312.352 712 401 800.648 401 910Z" fill="#FBFAF8"/>
<path d="M152.949 239.715C150.216 226.745 158.514 214.015 171.484 211.281L310.432 182L312.082 189.828C314.815 202.798 306.517 215.528 293.547 218.261L154.599 247.543L152.949 239.715Z" fill="#D3F36B"/>
<path d="M169.575 226.433L170.641 231.49C170.729 231.907 170.881 232.186 171.095 232.326C171.308 232.456 171.633 232.474 172.072 232.382L173.121 232.161L173.375 233.366L172.091 233.637C171.298 233.804 170.664 233.747 170.191 233.465C169.717 233.183 169.392 232.625 169.216 231.79L168.151 226.733L167.039 226.967L166.792 225.793L167.903 225.559L167.448 223.398L168.873 223.098L169.328 225.259L171.567 224.787L171.814 225.961L169.575 226.433ZM179.499 232.223C178.695 232.392 177.926 232.364 177.192 232.137C176.467 231.908 175.847 231.499 175.331 230.91C174.822 230.309 174.475 229.564 174.288 228.677C174.103 227.801 174.128 226.989 174.363 226.241C174.606 225.482 175.019 224.855 175.602 224.362C176.183 223.858 176.88 223.52 177.694 223.348C178.508 223.177 179.282 223.204 180.017 223.431C180.749 223.647 181.374 224.05 181.89 224.639C182.417 225.225 182.774 225.962 182.961 226.849C183.148 227.737 183.115 228.561 182.861 229.323C182.616 230.073 182.198 230.7 181.607 231.206C181.016 231.713 180.313 232.051 179.499 232.223ZM179.235 230.97C179.746 230.863 180.201 230.641 180.599 230.307C180.998 229.972 181.282 229.536 181.452 228.999C181.633 228.459 181.65 227.845 181.505 227.156C181.36 226.467 181.101 225.912 180.729 225.489C180.356 225.066 179.926 224.786 179.44 224.648C178.951 224.501 178.45 224.481 177.939 224.588C177.417 224.698 176.962 224.92 176.575 225.252C176.195 225.572 175.925 225.999 175.766 226.534C175.606 227.07 175.599 227.682 175.744 228.37C175.891 229.07 176.141 229.633 176.492 230.06C176.854 230.486 177.275 230.773 177.753 230.923C178.23 231.062 178.723 231.078 179.235 230.97ZM189.725 225.408C189.541 224.531 189.556 223.726 189.773 222.994C189.987 222.251 190.363 221.632 190.902 221.137C191.451 220.64 192.112 220.31 192.884 220.147C193.552 220.006 194.206 220.032 194.846 220.224C195.484 220.406 196.007 220.715 196.416 221.153L195.459 216.612L196.899 216.309L199.341 227.894L197.9 228.198L197.561 226.585C197.386 227.156 197.058 227.667 196.575 228.117C196.09 228.558 195.477 228.856 194.736 229.012C193.974 229.172 193.241 229.131 192.535 228.887C191.84 228.641 191.244 228.216 190.746 227.613C190.248 227.009 189.908 226.274 189.725 225.408ZM196.993 223.892C196.857 223.245 196.607 222.709 196.245 222.284C195.883 221.859 195.451 221.568 194.95 221.412C194.456 221.244 193.944 221.216 193.411 221.328C192.879 221.44 192.42 221.668 192.034 222.01C191.649 222.353 191.376 222.792 191.216 223.327C191.057 223.863 191.045 224.454 191.181 225.101C191.32 225.758 191.571 226.305 191.936 226.741C192.298 227.166 192.725 227.462 193.219 227.631C193.71 227.789 194.222 227.812 194.754 227.7C195.286 227.588 195.745 227.36 196.131 227.017C196.525 226.662 196.801 226.217 196.961 225.681C197.119 225.136 197.129 224.54 196.993 223.892ZM209.229 220.987C209.287 221.258 209.331 221.548 209.364 221.858L202.506 223.303C202.737 224.137 203.163 224.74 203.787 225.11C204.418 225.467 205.109 225.567 205.861 225.408C206.477 225.279 206.958 225.03 207.306 224.662C207.662 224.282 207.873 223.834 207.939 223.319L209.473 222.996C209.417 223.869 209.1 224.639 208.521 225.306C207.94 225.962 207.138 226.398 206.115 226.614C205.301 226.786 204.532 226.757 203.807 226.528C203.094 226.297 202.484 225.886 201.978 225.295C201.47 224.693 201.122 223.949 200.935 223.062C200.748 222.175 200.762 221.36 200.976 220.617C201.19 219.874 201.578 219.258 202.14 218.769C202.71 218.267 203.412 217.929 204.247 217.753C205.061 217.581 205.819 217.607 206.52 217.83C207.221 218.052 207.805 218.442 208.271 218.998C208.745 219.541 209.064 220.204 209.229 220.987ZM207.695 220.999C207.581 220.457 207.363 220.018 207.041 219.682C206.718 219.336 206.326 219.108 205.867 218.997C205.416 218.874 204.94 218.866 204.439 218.971C203.719 219.123 203.151 219.482 202.737 220.049C202.332 220.614 202.179 221.311 202.278 222.141L207.695 220.999ZM225.986 213.155C226.654 213.014 227.279 213.03 227.86 213.202C228.439 213.363 228.938 213.688 229.357 214.178C229.777 214.667 230.07 215.309 230.237 216.102L231.303 221.159L229.894 221.456L228.871 216.602C228.69 215.746 228.339 215.139 227.817 214.781C227.302 214.409 226.685 214.3 225.965 214.451C225.224 214.607 224.685 214.972 224.347 215.544C224.008 216.106 223.933 216.836 224.122 217.734L225.119 222.462L223.709 222.759L222.687 217.906C222.506 217.05 222.155 216.442 221.632 216.084C221.118 215.713 220.501 215.603 219.781 215.755C219.04 215.911 218.5 216.275 218.163 216.848C217.824 217.41 217.749 218.139 217.938 219.037L218.934 223.765L217.51 224.065L215.702 215.486L217.126 215.186L217.387 216.422C217.574 215.914 217.877 215.491 218.296 215.152C218.726 214.81 219.228 214.579 219.802 214.458C220.522 214.307 221.193 214.334 221.814 214.541C222.436 214.748 222.948 215.136 223.351 215.705C223.464 215.049 223.761 214.496 224.244 214.045C224.727 213.595 225.308 213.298 225.986 213.155ZM232.823 216.325C232.638 215.449 232.654 214.644 232.87 213.912C233.084 213.169 233.461 212.55 234 212.055C234.549 211.558 235.205 211.229 235.967 211.068C236.718 210.91 237.404 210.934 238.026 211.141C238.647 211.348 239.145 211.668 239.52 212.102L239.19 210.536L240.63 210.232L242.438 218.812L240.998 219.116L240.662 217.519C240.485 218.079 240.151 218.586 239.657 219.038C239.172 219.479 238.559 219.777 237.818 219.933C237.056 220.093 236.328 220.051 235.633 219.805C234.938 219.559 234.342 219.134 233.844 218.53C233.346 217.927 233.006 217.192 232.823 216.325ZM240.091 214.81C239.954 214.163 239.705 213.627 239.343 213.202C238.981 212.777 238.549 212.486 238.048 212.33C237.554 212.162 237.041 212.133 236.509 212.246C235.977 212.358 235.518 212.585 235.132 212.928C234.747 213.271 234.474 213.71 234.314 214.245C234.154 214.78 234.143 215.371 234.279 216.019C234.418 216.676 234.669 217.223 235.033 217.658C235.396 218.083 235.823 218.38 236.317 218.549C236.808 218.707 237.32 218.73 237.852 218.618C238.384 218.505 238.843 218.278 239.229 217.935C239.622 217.58 239.899 217.134 240.059 216.599C240.217 216.054 240.227 215.457 240.091 214.81ZM244.456 206.287L246.897 217.872L245.472 218.173L243.031 206.587L244.456 206.287ZM253.723 216.581C252.919 216.75 252.15 216.722 251.416 216.495C250.692 216.266 250.071 215.857 249.555 215.268C249.046 214.667 248.699 213.923 248.512 213.035C248.327 212.159 248.352 211.347 248.587 210.6C248.83 209.84 249.243 209.213 249.826 208.72C250.407 208.216 251.104 207.878 251.918 207.707C252.732 207.535 253.507 207.563 254.241 207.789C254.974 208.006 255.598 208.408 256.114 208.997C256.641 209.584 256.998 210.32 257.185 211.208C257.372 212.095 257.339 212.919 257.085 213.681C256.84 214.431 256.422 215.059 255.831 215.565C255.24 216.071 254.537 216.41 253.723 216.581ZM253.459 215.329C253.97 215.221 254.425 215 254.824 214.665C255.222 214.33 255.506 213.894 255.676 213.357C255.857 212.818 255.874 212.203 255.729 211.515C255.584 210.826 255.325 210.27 254.953 209.847C254.58 209.424 254.151 209.144 253.664 209.007C253.175 208.859 252.675 208.839 252.163 208.947C251.641 209.057 251.186 209.278 250.799 209.61C250.419 209.93 250.149 210.358 249.99 210.893C249.83 211.428 249.823 212.04 249.968 212.729C250.115 213.428 250.365 213.991 250.716 214.419C251.079 214.844 251.499 215.131 251.977 215.281C252.454 215.421 252.948 215.436 253.459 215.329ZM262.931 205.369C263.975 205.149 264.888 205.29 265.669 205.79C266.448 206.28 266.963 207.12 267.214 208.309L268.279 213.366L266.87 213.663L265.847 208.81C265.667 207.954 265.316 207.347 264.793 206.988C264.268 206.619 263.636 206.513 262.894 206.669C262.143 206.827 261.592 207.189 261.242 207.753C260.903 208.315 260.828 209.045 261.017 209.942L262.017 214.686L260.592 214.986L258.784 206.407L260.209 206.107L260.466 207.328C260.656 206.83 260.965 206.41 261.395 206.069C261.835 205.726 262.347 205.493 262.931 205.369ZM272.933 203.278C273.674 203.122 274.356 203.147 274.977 203.354C275.609 203.559 276.112 203.878 276.487 204.311L276.157 202.746L277.597 202.442L279.445 211.21C279.61 211.992 279.589 212.722 279.383 213.397C279.178 214.084 278.8 214.665 278.246 215.141C277.703 215.616 277.019 215.94 276.194 216.113C275.067 216.351 274.072 216.283 273.208 215.909C272.344 215.535 271.748 214.903 271.418 214.013L272.828 213.716C273.094 214.205 273.506 214.554 274.062 214.764C274.621 214.984 275.245 215.022 275.934 214.876C276.716 214.712 277.301 214.332 277.689 213.738C278.086 213.142 278.191 212.4 278.005 211.513L277.625 209.713C277.449 210.273 277.119 210.779 276.637 211.229C276.154 211.68 275.542 211.983 274.801 212.139C274.039 212.3 273.305 212.258 272.6 212.014C271.905 211.768 271.308 211.344 270.81 210.74C270.313 210.136 269.972 209.401 269.79 208.535C269.605 207.658 269.621 206.854 269.837 206.121C270.051 205.379 270.428 204.76 270.967 204.265C271.516 203.767 272.171 203.438 272.933 203.278ZM277.058 207.02C276.921 206.373 276.672 205.837 276.31 205.411C275.948 204.986 275.516 204.696 275.014 204.54C274.521 204.371 274.008 204.343 273.476 204.455C272.944 204.567 272.485 204.795 272.099 205.138C271.713 205.481 271.441 205.92 271.281 206.455C271.121 206.99 271.11 207.581 271.246 208.228C271.384 208.886 271.636 209.432 272 209.868C272.362 210.293 272.79 210.59 273.283 210.758C273.775 210.917 274.286 210.94 274.819 210.827C275.351 210.715 275.81 210.488 276.195 210.145C276.589 209.789 276.866 209.344 277.026 208.809C277.183 208.263 277.194 207.667 277.058 207.02ZM285.506 209.883C284.849 210.022 284.236 210.036 283.668 209.927C283.097 209.808 282.619 209.581 282.233 209.249C281.844 208.905 281.58 208.476 281.438 207.961L282.91 207.651C283.042 208.07 283.314 208.378 283.726 208.574C284.148 208.769 284.652 208.804 285.236 208.681C285.779 208.567 286.182 208.356 286.444 208.05C286.707 207.744 286.8 207.409 286.723 207.043C286.643 206.668 286.418 206.426 286.047 206.319C285.673 206.202 285.118 206.128 284.381 206.098C283.71 206.065 283.152 206.008 282.71 205.927C282.276 205.833 281.878 205.65 281.515 205.377C281.161 205.092 280.925 204.673 280.809 204.12C280.716 203.682 280.762 203.252 280.946 202.832C281.13 202.412 281.44 202.047 281.876 201.737C282.31 201.416 282.835 201.191 283.451 201.061C284.401 200.861 285.218 200.94 285.904 201.297C286.59 201.654 287.041 202.245 287.259 203.071L285.834 203.372C285.709 202.929 285.45 202.608 285.059 202.407C284.678 202.204 284.211 202.16 283.658 202.277C283.146 202.385 282.763 202.58 282.506 202.863C282.25 203.146 282.159 203.465 282.233 203.82C282.293 204.102 282.431 204.318 282.648 204.468C282.873 204.606 283.134 204.704 283.429 204.761C283.733 204.806 284.145 204.845 284.664 204.877C285.315 204.915 285.851 204.976 286.272 205.062C286.692 205.137 287.071 205.308 287.41 205.574C287.76 205.838 287.996 206.23 288.116 206.75C288.215 207.219 288.174 207.67 287.992 208.1C287.81 208.531 287.502 208.907 287.068 209.227C286.643 209.535 286.122 209.753 285.506 209.883ZM296.827 198.39L294.32 212.097L292.848 212.408L293.668 207.918L288.419 200.162L290.001 199.828L294.158 206.212L295.355 198.7L296.827 198.39Z" fill="#242424"/>
<path d="M142.906 216.404C140.401 204.515 148.007 192.846 159.897 190.34L249.919 171.369L251.157 177.24C253.662 189.129 246.055 200.798 234.166 203.304L144.143 222.275L142.906 216.404Z" fill="#E2B8E0"/>
<path d="M168.813 197.503L167.95 209.082L166.354 209.418L161.966 201.17L161.187 210.507L159.609 210.856L154.253 200.571L155.772 200.251L160.101 209.002L160.782 199.195L162.379 198.859L166.827 207.552L167.279 197.826L168.813 197.503ZM180.153 201.686C180.21 201.958 180.255 202.248 180.288 202.557L173.43 204.003C173.661 204.837 174.087 205.439 174.71 205.809C175.342 206.167 176.033 206.266 176.785 206.108C177.4 205.978 177.882 205.73 178.23 205.362C178.586 204.982 178.797 204.534 178.862 204.019L180.397 203.695C180.341 204.568 180.023 205.338 179.445 206.005C178.863 206.662 178.061 207.098 177.039 207.314C176.224 207.485 175.455 207.456 174.731 207.228C174.018 206.996 173.408 206.585 172.902 205.994C172.393 205.393 172.046 204.649 171.859 203.761C171.672 202.874 171.685 202.059 171.899 201.316C172.114 200.574 172.502 199.958 173.063 199.469C173.634 198.967 174.336 198.628 175.171 198.452C175.985 198.281 176.743 198.306 177.444 198.529C178.145 198.752 178.728 199.142 179.194 199.697C179.669 200.241 179.988 200.904 180.153 201.686ZM178.619 201.699C178.504 201.156 178.286 200.717 177.965 200.382C177.641 200.036 177.25 199.807 176.791 199.697C176.34 199.574 175.864 199.565 175.363 199.671C174.642 199.823 174.075 200.182 173.66 200.749C173.256 201.314 173.103 202.011 173.202 202.841L178.619 201.699ZM182.616 193.891L185.058 205.476L183.633 205.777L181.192 194.191L182.616 193.891ZM186.673 200.64C186.486 199.752 186.5 198.943 186.717 198.21C186.931 197.467 187.313 196.847 187.862 196.35C188.421 195.851 189.108 195.515 189.923 195.344C190.977 195.121 191.897 195.195 192.683 195.563C193.48 195.929 194.083 196.543 194.494 197.405L192.96 197.729C192.703 197.237 192.33 196.886 191.838 196.673C191.357 196.458 190.803 196.417 190.177 196.549C189.362 196.721 188.764 197.141 188.382 197.81C187.998 198.469 187.913 199.31 188.129 200.333C188.347 201.366 188.765 202.112 189.385 202.57C190.005 203.028 190.722 203.171 191.536 202.999C192.162 202.867 192.653 202.611 193.009 202.231C193.365 201.851 193.564 201.373 193.606 200.797L195.141 200.474C195.096 201.399 194.785 202.2 194.208 202.878C193.629 203.545 192.823 203.987 191.79 204.205C190.976 204.377 190.212 204.347 189.498 204.116C188.795 203.882 188.196 203.469 187.7 202.876C187.204 202.283 186.862 201.537 186.673 200.64ZM202.02 202.049C201.216 202.218 200.447 202.19 199.713 201.963C198.989 201.734 198.368 201.325 197.852 200.736C197.343 200.135 196.996 199.391 196.809 198.503C196.624 197.627 196.649 196.815 196.884 196.068C197.127 195.308 197.54 194.681 198.123 194.188C198.704 193.684 199.401 193.346 200.215 193.175C201.029 193.003 201.804 193.031 202.538 193.257C203.271 193.474 203.895 193.876 204.411 194.465C204.938 195.052 205.295 195.788 205.482 196.676C205.669 197.563 205.636 198.387 205.382 199.149C205.137 199.899 204.719 200.527 204.128 201.033C203.537 201.539 202.834 201.878 202.02 202.049ZM201.756 200.797C202.267 200.689 202.722 200.468 203.121 200.133C203.519 199.798 203.803 199.362 203.973 198.825C204.154 198.286 204.172 197.671 204.026 196.982C203.881 196.294 203.622 195.738 203.25 195.315C202.877 194.892 202.448 194.612 201.961 194.475C201.472 194.327 200.972 194.307 200.46 194.415C199.938 194.525 199.484 194.746 199.096 195.078C198.716 195.398 198.447 195.826 198.287 196.361C198.127 196.896 198.12 197.508 198.265 198.197C198.412 198.896 198.662 199.459 199.013 199.887C199.376 200.312 199.796 200.599 200.274 200.749C200.751 200.889 201.245 200.904 201.756 200.797ZM217.366 189.544C218.034 189.403 218.658 189.419 219.239 189.591C219.818 189.752 220.318 190.077 220.737 190.567C221.156 191.056 221.449 191.697 221.617 192.491L222.682 197.548L221.273 197.845L220.25 192.991C220.07 192.135 219.719 191.528 219.196 191.169C218.682 190.798 218.065 190.688 217.344 190.84C216.603 190.996 216.064 191.361 215.727 191.933C215.388 192.495 215.312 193.225 215.502 194.123L216.498 198.851L215.089 199.148L214.066 194.294C213.886 193.439 213.534 192.831 213.012 192.473C212.498 192.101 211.88 191.992 211.16 192.143C210.419 192.3 209.88 192.664 209.543 193.236C209.203 193.798 209.128 194.528 209.317 195.426L210.314 200.154L208.889 200.454L207.081 191.875L208.506 191.575L208.766 192.811C208.954 192.303 209.257 191.88 209.676 191.541C210.105 191.199 210.607 190.968 211.181 190.847C211.902 190.695 212.572 190.723 213.194 190.93C213.815 191.137 214.327 191.525 214.731 192.094C214.843 191.438 215.141 190.885 215.624 190.434C216.106 189.984 216.687 189.687 217.366 189.544ZM232.5 190.655C232.557 190.926 232.602 191.217 232.635 191.526L225.777 192.971C226.008 193.805 226.434 194.408 227.057 194.778C227.689 195.135 228.38 195.235 229.132 195.077C229.747 194.947 230.229 194.698 230.577 194.331C230.933 193.95 231.144 193.503 231.209 192.987L232.744 192.664C232.688 193.537 232.371 194.307 231.792 194.974C231.211 195.63 230.409 196.067 229.386 196.282C228.572 196.454 227.802 196.425 227.078 196.196C226.365 195.965 225.755 195.554 225.249 194.963C224.74 194.361 224.393 193.617 224.206 192.73C224.019 191.843 224.032 191.028 224.247 190.285C224.461 189.542 224.849 188.926 225.411 188.437C225.981 187.936 226.683 187.597 227.518 187.421C228.332 187.249 229.09 187.275 229.791 187.498C230.492 187.721 231.076 188.11 231.541 188.666C232.016 189.209 232.335 189.872 232.5 190.655ZM230.966 190.668C230.852 190.125 230.634 189.686 230.312 189.35C229.989 189.004 229.597 188.776 229.138 188.666C228.687 188.543 228.211 188.534 227.71 188.639C226.99 188.791 226.422 189.151 226.007 189.718C225.603 190.282 225.45 190.98 225.549 191.809L230.966 190.668ZM235.528 183.444L237.006 191.308L235.816 191.559L233.994 183.767L235.528 183.444ZM237.143 194.598C236.872 194.655 236.622 194.61 236.395 194.462C236.167 194.313 236.025 194.104 235.968 193.832C235.911 193.561 235.956 193.311 236.104 193.084C236.253 192.856 236.463 192.714 236.734 192.657C236.995 192.602 237.234 192.65 237.451 192.8C237.678 192.948 237.821 193.158 237.878 193.43C237.935 193.701 237.89 193.95 237.741 194.178C237.603 194.403 237.404 194.543 237.143 194.598Z" fill="#242424"/>
<path d="M142.906 216.404C140.401 204.515 148.007 192.846 159.897 190.34L249.919 171.369L251.157 177.24C253.662 189.129 246.055 200.798 234.166 203.304L144.143 222.275L142.906 216.404Z" stroke="#212121" stroke-width="4"/>
<g clip-path="url(#clip1_986_4595)">
<path d="M47.312 175.474C43.216 175.474 38.832 174.658 34.16 173.026L34.544 169.666C39.92 172.994 44.464 174.658 48.176 174.658C50.864 174.658 53.056 174.05 54.752 172.834C56.448 171.618 57.296 170.018 57.296 168.034C57.296 167.746 57.232 167.25 57.104 166.546C56.816 165.266 56.096 164.114 54.944 163.09C53.792 162.034 52.464 161.122 50.96 160.354C49.456 159.554 47.504 158.642 45.104 157.618C42.64 156.562 40.672 155.65 39.2 154.882C37.76 154.114 36.528 153.234 35.504 152.242C34.48 151.218 33.92 150.066 33.824 148.786C33.696 146.962 34.24 145.426 35.456 144.178C36.672 142.898 38.336 141.954 40.448 141.346C42.592 140.706 44.976 140.386 47.6 140.386C51.504 140.386 55.52 141.01 59.648 142.258L59.216 145.618C56.944 144.242 54.688 143.154 52.448 142.354C50.208 141.554 48.256 141.154 46.592 141.154C43.744 141.154 41.488 141.634 39.824 142.594C38.16 143.522 37.392 144.834 37.52 146.53C37.584 147.49 38.064 148.386 38.96 149.218C39.888 150.05 41.024 150.818 42.368 151.522C43.712 152.194 45.52 153.042 47.792 154.066C50.672 155.378 52.992 156.53 54.752 157.522C56.544 158.482 58.08 159.634 59.36 160.978C60.672 162.322 61.392 163.826 61.52 165.49C61.68 167.602 61.152 169.41 59.936 170.914C58.752 172.418 57.056 173.554 54.848 174.322C52.64 175.09 50.128 175.474 47.312 175.474ZM69.2923 144.13C68.5563 144.13 67.9163 143.874 67.3723 143.362C66.8603 142.818 66.6043 142.178 66.6043 141.442C66.6043 140.706 66.8603 140.082 67.3723 139.57C67.9163 139.026 68.5563 138.754 69.2923 138.754C70.0283 138.754 70.6523 139.026 71.1643 139.57C71.7083 140.082 71.9803 140.706 71.9803 141.442C71.9803 142.178 71.7083 142.818 71.1643 143.362C70.6523 143.874 70.0283 144.13 69.2923 144.13ZM71.6923 174.85H66.8923V147.106H71.6923V174.85ZM83.2985 186.61C81.1225 186.61 78.8345 186.322 76.4345 185.746L77.1545 182.386C80.6425 184.626 83.6985 185.746 86.3225 185.746C89.3625 185.746 91.7145 184.514 93.3785 182.05C95.0425 179.618 95.8745 176.402 95.8745 172.402V169.138H95.7305C94.9305 171.186 93.7305 172.786 92.1305 173.938C90.5625 175.09 88.8505 175.666 86.9945 175.666C85.1705 175.666 83.4585 175.154 81.8585 174.13C80.2585 173.106 78.9625 171.506 77.9705 169.33C76.9785 167.154 76.4825 164.434 76.4825 161.17C76.4825 158.322 76.9945 155.778 78.0185 153.538C79.0745 151.266 80.4985 149.506 82.2905 148.258C84.0825 146.978 86.0665 146.338 88.2425 146.338C90.8025 146.338 93.3465 147.234 95.8745 149.026V147.106H100.675V169.714C100.675 173.106 99.9385 176.082 98.4665 178.642C97.0265 181.202 94.9945 183.17 92.3705 184.546C89.7465 185.922 86.7225 186.61 83.2985 186.61ZM88.3385 174.226C89.4585 174.226 90.5465 173.906 91.6025 173.266C92.6905 172.594 93.6025 171.618 94.3385 170.338C95.1065 169.058 95.6185 167.538 95.8745 165.778V149.842C93.6345 148.21 91.5705 147.394 89.6825 147.394C87.8905 147.394 86.3385 148.034 85.0265 149.314C83.7465 150.594 82.7545 152.274 82.0505 154.354C81.3785 156.434 81.0425 158.674 81.0425 161.074C81.0425 163.73 81.3625 166.066 82.0025 168.082C82.6425 170.066 83.5225 171.586 84.6425 172.642C85.7625 173.698 86.9945 174.226 88.3385 174.226ZM125.116 146.29C126.908 146.29 128.412 146.882 129.628 148.066C130.876 149.25 131.5 150.994 131.5 153.298V174.85H126.7V153.154C126.7 151.394 126.364 150.082 125.692 149.218C125.02 148.322 124.108 147.874 122.956 147.874C121.804 147.874 120.524 148.274 119.116 149.074C117.74 149.874 116.364 151.01 114.988 152.482C113.644 153.954 112.46 155.666 111.436 157.618V174.85H106.636V147.106H111.436V156.418C113.356 153.09 115.548 150.578 118.012 148.882C120.476 147.154 122.844 146.29 125.116 146.29ZM153.545 174.85H148.745V141.154H153.545V174.85ZM179.35 146.29C181.142 146.29 182.646 146.882 183.862 148.066C185.11 149.25 185.734 150.994 185.734 153.298V174.85H180.934V153.154C180.934 151.394 180.598 150.082 179.926 149.218C179.254 148.322 178.342 147.874 177.19 147.874C176.038 147.874 174.758 148.274 173.35 149.074C171.974 149.874 170.598 151.01 169.222 152.482C167.878 153.954 166.694 155.666 165.67 157.618V174.85H160.87V147.106H165.67V156.418C167.59 153.09 169.782 150.578 172.246 148.882C174.71 147.154 177.078 146.29 179.35 146.29Z" fill="white"/>
</g>
<g clip-path="url(#clip2_986_4595)">
<path d="M333.655 124.518C336.513 116.391 316.321 101.888 288.556 92.1267C260.791 82.3651 235.966 81.0408 233.108 89.1688C230.251 97.2967 250.442 111.799 278.208 121.561C305.973 131.322 330.798 132.646 333.655 124.518Z" stroke="#D3F36B" stroke-miterlimit="10"/>
<path d="M326.571 144.659C329.428 136.531 309.237 122.029 281.471 112.267C253.706 102.506 228.881 101.181 226.024 109.309C223.166 117.437 243.358 131.94 271.123 141.701C298.888 151.463 323.713 152.787 326.571 144.659Z" stroke="#D3F36B" stroke-miterlimit="10"/>
</g>
<path d="M131.63 196.012L133.332 198.338C134.855 200.419 137.534 201.297 139.993 200.522L142.742 199.655L140.416 201.358C138.336 202.881 137.458 205.56 138.233 208.019L139.099 210.768L137.397 208.442C135.874 206.362 133.195 205.483 130.736 206.258L127.987 207.125L130.313 205.422C132.393 203.9 133.271 201.22 132.496 198.761L131.63 196.012Z" fill="#D3F36B"/>
</g>

</svg>
