<svg width="24" height="24" viewBox="0 0 24 24" fill="none" xmlns="http://www.w3.org/2000/svg">
<path d="M17.0006 10.499C17.0006 11.9332 16.535 13.258 15.7506 14.3329L19.707 18.2917C20.0977 18.6822 20.0977 19.3165 19.707 19.7071C19.3164 20.0976 18.682 20.0976 18.2913 19.7071L14.3349 15.7483C13.2598 16.5357 11.9348 16.9981 10.5003 16.9981C6.90952 16.9981 4 14.0891 4 10.499C4 6.90895 6.90952 4 10.5003 4C14.0911 4 17.0006 6.90895 17.0006 10.499ZM10.5003 14.9984C12.9848 14.9984 15.0005 12.9831 15.0005 10.499C15.0005 8.01504 12.9848 5.99971 10.5003 5.99971C8.01582 5.99971 6.0001 8.01504 6.0001 10.499C6.0001 12.9831 8.01582 14.9984 10.5003 14.9984Z" fill="black"/>
</svg>
