<svg width="25" height="24" viewBox="0 0 25 24" fill="none" xmlns="http://www.w3.org/2000/svg">
<path fill-rule="evenodd" clip-rule="evenodd" d="M4.64563 17.112C3.75092 15.6244 3.23558 13.8724 3.23558 12C3.23558 6.63469 7.47291 2.25 12.7428 2.25C18.0127 2.25 22.25 6.63469 22.25 12C22.25 17.3653 18.0127 21.75 12.7428 21.75C11.3556 21.75 10.0365 21.4448 8.84731 20.8965L8.84317 20.8981C8.60177 20.9958 8.25319 21.1103 7.78294 21.205C6.84192 21.3945 5.42123 21.503 3.40446 21.2439C3.1219 21.2076 2.8843 21.0143 2.7912 20.7451C2.6981 20.4759 2.76558 20.1771 2.96536 19.974C3.61921 19.3094 4.06466 18.5206 4.34814 17.8829C4.4868 17.5709 4.5837 17.302 4.64563 17.112Z" fill="#3A3A3A"/>
</svg>
