<svg width="24" height="24" viewBox="0 0 24 24" fill="none" xmlns="http://www.w3.org/2000/svg">
<path d="M1 3C1 1.34531 2.34531 0 4 0H19C20.6547 0 22 1.34531 22 3V21C22 22.6547 20.6547 24 19 24H4C2.34531 24 1 22.6547 1 21V3ZM9.57812 13.0687C8.27031 12.45 7.30938 11.2219 7.06094 9.75H8.89375C8.96875 11.175 9.25469 12.2719 9.57812 13.0687ZM11.5141 13.5H11.5H11.4859C11.3734 13.3359 11.2188 13.0828 11.0594 12.7266C10.7781 12.0891 10.4781 11.1188 10.3937 9.75H12.6016C12.5172 11.1188 12.2219 12.0891 11.9359 12.7266C11.7766 13.0828 11.6219 13.3359 11.5094 13.5H11.5141ZM13.4219 13.0687C13.7406 12.2672 14.0266 11.175 14.1063 9.75H15.9391C15.6906 11.2219 14.7297 12.45 13.4219 13.0687V13.0687ZM14.1063 8.25C14.0313 6.825 13.7453 5.72812 13.4219 4.93125C14.7297 5.55 15.6906 6.77813 15.9391 8.25H14.1063ZM11.4859 4.5H11.5H11.5141C11.6266 4.66406 11.7812 4.91719 11.9406 5.27344C12.2219 5.91094 12.5219 6.88125 12.6063 8.25H10.3984C10.4828 6.88125 10.7781 5.91094 11.0641 5.27344C11.2234 4.91719 11.3781 4.66406 11.4906 4.5H11.4859ZM9.57812 4.93125C9.25937 5.73281 8.97344 6.825 8.89375 8.25H7.06094C7.30938 6.77813 8.27031 5.55 9.57812 4.93125ZM17.5 9C17.5 5.68594 14.8141 3 11.5 3C8.18594 3 5.5 5.68594 5.5 9C5.5 12.3141 8.18594 15 11.5 15C14.8141 15 17.5 12.3141 17.5 9ZM6.25 18C5.8375 18 5.5 18.3375 5.5 18.75C5.5 19.1625 5.8375 19.5 6.25 19.5H16.75C17.1625 19.5 17.5 19.1625 17.5 18.75C17.5 18.3375 17.1625 18 16.75 18H6.25Z" fill="#3A3A3A"/>
</svg>
