<svg width="209" height="208" viewBox="0 0 209 208" fill="none" xmlns="http://www.w3.org/2000/svg">
<path d="M50 155C22.3858 155 0 132.614 0 105L0 0H104L104 155H50Z" fill="#505050"/>
<rect x="105" y="104" width="104" height="104" transform="rotate(-90 105 104)" fill="#FAFAFA"/>
<rect x="104" y="104" width="52" height="105" transform="rotate(-90 104 104)" fill="#E2B8E0"/>
<path d="M208.999 52.0002C180.281 52.0002 157 28.7191 157 0.00031662H208.999V52.0002Z" fill="#D3F36B"/>
<path d="M51.8052 155.805C80.4165 155.805 103.61 179.174 103.61 208H-1.52588e-05C-1.52588e-05 179.174 23.194 155.805 51.8052 155.805Z" fill="#FBFAF8"/>
<path d="M51.8052 155.026C80.4165 155.026 103.61 132.007 103.61 103.61L-1.52588e-05 103.61C-1.52588e-05 132.007 23.194 155.026 51.8052 155.026Z" fill="#505050"/>
<path d="M158 103C158 131.719 180.833 155 209 155L209 51C180.833 51 158 74.2812 158 103Z" fill="#D3F36B"/>
<path d="M158 104C158 75.2812 134.271 52 105 52L105 156C134.271 156 158 132.719 158 104Z" fill="#D3F36B"/>
</svg>
