<svg width="182" height="79" viewBox="0 0 182 79" fill="none" xmlns="http://www.w3.org/2000/svg">
<path d="M16.949 70.7147C14.2157 57.7447 22.5142 45.0147 35.4842 42.2815L174.432 12.9999L176.082 20.828C178.815 33.798 170.517 46.5279 157.547 49.2612L18.5987 78.5427L16.949 70.7147Z" fill="#D3F36B"/>
<path d="M33.576 57.4327L34.6416 62.4897C34.7296 62.9072 34.881 63.1859 35.0959 63.326C35.3085 63.4556 35.634 63.4742 36.0724 63.3818L37.1213 63.1608L37.3754 64.3663L36.0916 64.6368C35.2983 64.804 34.6649 64.7467 34.1913 64.465C33.7177 64.1833 33.3929 63.6249 33.2169 62.7899L32.1513 57.733L31.0397 57.9672L30.7922 56.793L31.9038 56.5588L31.4485 54.3982L32.8732 54.098L33.3285 56.2585L35.5673 55.7867L35.8148 56.9609L33.576 57.4327ZM43.4993 63.2229C42.6957 63.3923 41.9265 63.3636 41.192 63.1368C40.4679 62.9079 39.8476 62.499 39.3311 61.9102C38.8228 61.3088 38.4752 60.5645 38.2882 59.6773C38.1034 58.8005 38.1285 57.9886 38.3635 57.2414C38.6067 56.4816 39.0197 55.8549 39.6025 55.3615C40.1831 54.8576 40.8804 54.5199 41.6945 54.3483C42.5087 54.1768 43.283 54.2044 44.0175 54.4311C44.7499 54.6474 45.3743 55.0499 45.8908 55.6388C46.4178 56.2254 46.7747 56.9623 46.9617 57.8494C47.1487 58.7366 47.1153 59.5612 46.8617 60.3232C46.6163 61.0726 46.198 61.7004 45.607 62.2064C45.016 62.7125 44.3135 63.0513 43.4993 63.2229ZM43.2354 61.9704C43.7468 61.8626 44.2016 61.6414 44.5999 61.3068C44.9981 60.9721 45.2823 60.5362 45.4525 59.9989C45.6331 59.4593 45.6508 58.8452 45.5057 58.1563C45.3605 57.4674 45.1016 56.9115 44.7291 56.4886C44.3565 56.0656 43.9269 55.7856 43.4401 55.6483C42.9512 55.5006 42.451 55.4807 41.9395 55.5885C41.4177 55.6984 40.9628 55.9197 40.5751 56.2521C40.1955 56.5719 39.9259 56.9994 39.7661 57.5345C39.6063 58.0696 39.5991 58.6816 39.7442 59.3704C39.8916 60.0697 40.1411 60.6331 40.4928 61.0604C40.8549 61.4855 41.2752 61.773 41.7538 61.9229C42.2301 62.0624 42.724 62.0782 43.2354 61.9704ZM53.7258 56.4077C53.541 55.5309 53.5568 54.7264 53.7731 53.994C53.9872 53.2512 54.3636 52.6323 54.9025 52.1372C55.4517 51.64 56.1125 51.3099 56.8849 51.1472C57.5529 51.0064 58.2069 51.0321 58.847 51.2242C59.4848 51.4059 60.0079 51.7154 60.4161 52.1526L59.4593 47.6123L60.8997 47.3088L63.3412 58.8943L61.9008 59.1979L61.561 57.5853C61.387 58.1561 61.0585 58.6668 60.5757 59.1174C60.0907 59.5575 59.4777 59.8557 58.7367 60.0118C57.9747 60.1724 57.2411 60.1308 56.5356 59.887C55.8406 59.641 55.2442 59.2162 54.7464 58.6126C54.2485 58.0089 53.9083 57.274 53.7258 56.4077ZM60.9935 54.8924C60.8571 54.2453 60.6079 53.7092 60.2458 53.284C59.8837 52.8589 59.4518 52.5684 58.9502 52.4125C58.4568 52.2439 57.944 52.2157 57.4117 52.3279C56.8794 52.4401 56.4204 52.6676 56.0349 53.0105C55.6493 53.3534 55.3766 53.7924 55.2169 54.3275C55.0571 54.8626 55.0454 55.4537 55.1818 56.1008C55.3204 56.7584 55.5718 57.3049 55.9361 57.7405C56.2982 58.1656 56.726 58.4625 57.2193 58.631C57.7105 58.7892 58.2222 58.8121 58.7545 58.7C59.2868 58.5878 59.7458 58.3602 60.1314 58.0174C60.5252 57.6618 60.802 57.2165 60.9617 56.6814C61.1193 56.1359 61.1299 55.5395 60.9935 54.8924ZM73.2298 51.9868C73.287 52.2581 73.3318 52.5485 73.3643 52.8577L66.5069 54.3028C66.7373 55.1373 67.164 55.7396 67.787 56.1097C68.4183 56.4672 69.1097 56.5668 69.8612 56.4084C70.477 56.2786 70.9587 56.03 71.3064 55.6624C71.6623 55.2821 71.8732 54.8344 71.939 54.3191L73.4733 53.9957C73.4175 54.8687 73.1001 55.6387 72.5212 56.3057C71.9401 56.9623 71.1381 57.3984 70.1152 57.6139C69.3011 57.7855 68.532 57.7568 67.8079 57.5279C67.0942 57.2967 66.4844 56.8857 65.9783 56.2947C65.47 55.6932 65.1224 54.9489 64.9354 54.0617C64.7485 53.1745 64.762 52.3596 64.9761 51.6168C65.1902 50.874 65.5782 50.2581 66.1401 49.769C66.7103 49.2674 67.4128 48.9285 68.2478 48.7526C69.0619 48.581 69.8195 48.6067 70.5206 48.8296C71.2216 49.0525 71.8051 49.4418 72.2711 49.9977C72.7453 50.5409 73.0648 51.2039 73.2298 51.9868ZM71.6955 51.9994C71.5811 51.4567 71.3632 51.0175 71.0417 50.6819C70.7181 50.3359 70.3266 50.1077 69.8673 49.9974C69.4163 49.8744 68.9402 49.8657 68.4393 49.9713C67.7191 50.1231 67.1517 50.4825 66.737 51.0495C66.3328 51.6143 66.1799 52.3115 66.2784 53.141L71.6955 51.9994ZM89.9865 44.1551C90.6545 44.0143 91.2791 44.0298 91.8604 44.2017C92.4394 44.3631 92.9386 44.6885 93.3579 45.1779C93.7771 45.6672 94.0703 46.3086 94.2375 47.1018L95.3032 52.1587L93.8941 52.4557L92.8713 47.6023C92.691 46.7464 92.3395 46.1392 91.817 45.7805C91.3027 45.4093 90.6855 45.2995 89.9653 45.4513C89.2243 45.6075 88.6851 45.9718 88.348 46.5443C88.0086 47.1064 87.9334 47.8362 88.1226 48.7338L89.119 53.462L87.71 53.7589L86.6872 48.9055C86.5068 48.0496 86.1554 47.4424 85.6328 47.0838C85.1186 46.7125 84.5013 46.6028 83.7812 46.7545C83.0401 46.9107 82.501 47.275 82.1638 47.8475C81.8244 48.4096 81.7493 49.1394 81.9384 50.0371L82.9348 54.7652L81.5101 55.0655L79.7021 46.4859L81.1268 46.1857L81.3874 47.4225C81.5747 46.9143 81.8778 46.4907 82.2969 46.1516C82.7265 45.8104 83.2283 45.5793 83.8023 45.4583C84.5225 45.3065 85.1933 45.3341 85.8146 45.5411C86.436 45.7481 86.9484 46.1361 87.3517 46.7052C87.4642 46.0492 87.7618 45.496 88.2446 45.0454C88.7274 44.5948 89.3081 44.298 89.9865 44.1551ZM96.8235 47.3254C96.6388 46.4486 96.6546 45.6441 96.8709 44.9117C97.085 44.1689 97.4614 43.55 98.0002 43.0549C98.5495 42.5576 99.2051 42.2287 99.967 42.0682C100.719 41.9098 101.405 41.9341 102.026 42.1411C102.648 42.3481 103.146 42.6682 103.521 43.1016L103.191 41.536L104.631 41.2325L106.439 49.812L104.999 50.1156L104.662 48.5186C104.486 49.079 104.151 49.5856 103.658 50.0384C103.173 50.4785 102.56 50.7767 101.819 50.9328C101.057 51.0934 100.328 51.0507 99.6334 50.8047C98.9384 50.5587 98.342 50.1339 97.8442 49.5303C97.3463 48.9266 97.0061 48.1917 96.8235 47.3254ZM104.091 45.8101C103.955 45.163 103.706 44.6269 103.344 44.2017C102.981 43.7766 102.55 43.4861 102.048 43.3302C101.555 43.1616 101.042 43.1334 100.509 43.2456C99.9772 43.3578 99.5182 43.5853 99.1326 43.9282C98.7471 44.2711 98.4744 44.7101 98.3146 45.2452C98.1549 45.7803 98.1432 46.3714 98.2796 47.0185C98.4181 47.6761 98.6696 48.2226 99.0339 48.6582C99.396 49.0833 99.8237 49.3802 100.317 49.5487C100.808 49.7069 101.32 49.7298 101.852 49.6176C102.385 49.5055 102.844 49.2779 103.229 48.9351C103.623 48.5795 103.9 48.1342 104.06 47.5991C104.217 47.0536 104.228 46.4572 104.091 45.8101ZM108.456 37.2869L110.898 48.8724L109.473 49.1727L107.031 37.5871L108.456 37.2869ZM117.723 47.5811C116.92 47.7505 116.151 47.7218 115.416 47.4951C114.692 47.2661 114.072 46.8573 113.555 46.2684C113.047 45.667 112.699 44.9227 112.512 44.0355C112.328 43.1588 112.353 42.3468 112.588 41.5996C112.831 40.8398 113.244 40.2132 113.827 39.7197C114.407 39.2158 115.105 38.8781 115.919 38.7066C116.733 38.535 117.507 38.5626 118.242 38.7893C118.974 39.0056 119.598 39.4082 120.115 39.997C120.642 40.5836 120.999 41.3205 121.186 42.2077C121.373 43.0948 121.339 43.9194 121.086 44.6815C120.84 45.4308 120.422 46.0586 119.831 46.5647C119.24 47.0707 118.538 47.4096 117.723 47.5811ZM117.46 46.3286C117.971 46.2209 118.426 45.9996 118.824 45.665C119.222 45.3304 119.506 44.8944 119.677 44.3571C119.857 43.8176 119.875 43.2034 119.73 42.5145C119.585 41.8256 119.326 41.2697 118.953 40.8468C118.581 40.4239 118.151 40.1438 117.664 40.0065C117.175 39.8589 116.675 39.8389 116.164 39.9467C115.642 40.0567 115.187 40.2779 114.799 40.6103C114.42 40.9301 114.15 41.3576 113.99 41.8927C113.83 42.4278 113.823 43.0398 113.968 43.7287C114.116 44.428 114.365 44.9913 114.717 45.4186C115.079 45.8437 115.499 46.1313 115.978 46.2811C116.454 46.4206 116.948 46.4364 117.46 46.3286ZM126.932 36.3693C127.976 36.1494 128.888 36.2896 129.669 36.7899C130.448 37.2797 130.963 38.1196 131.214 39.3095L132.28 44.3664L130.871 44.6633L129.848 39.8099C129.668 38.9541 129.316 38.3468 128.794 37.9882C128.269 37.6191 127.636 37.5127 126.895 37.6689C126.143 37.8272 125.593 38.1885 125.243 38.7528C124.904 39.3149 124.828 40.0447 125.018 40.9423L126.017 45.6861L124.593 45.9864L122.785 37.4068L124.209 37.1066L124.467 38.3278C124.656 37.83 124.966 37.4105 125.395 37.0693C125.835 36.7258 126.347 36.4925 126.932 36.3693ZM136.934 34.2779C137.675 34.1217 138.356 34.1471 138.977 34.3541C139.609 34.5589 140.113 34.878 140.487 35.3113L140.157 33.7457L141.598 33.4422L143.445 42.2096C143.61 42.9924 143.59 43.7217 143.383 44.3975C143.179 45.0837 142.8 45.665 142.246 46.1414C141.703 46.6156 141.019 46.9396 140.195 47.1133C139.067 47.3509 138.072 47.2827 137.208 46.9087C136.345 46.5348 135.748 45.9029 135.419 45.013L136.828 44.716C137.095 45.2049 137.506 45.5542 138.063 45.764C138.621 45.9841 139.245 46.0217 139.934 45.8765C140.717 45.7115 141.302 45.3321 141.689 44.7381C142.087 44.142 142.192 43.4003 142.005 42.5132L141.626 40.7127C141.449 41.2731 141.12 41.7786 140.637 42.2291C140.154 42.6797 139.542 42.9831 138.801 43.1392C138.039 43.2998 137.306 43.2582 136.6 43.0144C135.905 42.7685 135.309 42.3437 134.811 41.74C134.313 41.1364 133.973 40.4014 133.79 39.5351C133.606 38.6583 133.621 37.8538 133.838 37.1214C134.052 36.3787 134.428 35.7597 134.967 35.2647C135.516 34.7674 136.172 34.4384 136.934 34.2779ZM141.058 38.0198C140.922 37.3727 140.672 36.8366 140.31 36.4115C139.948 35.9863 139.516 35.6958 139.015 35.5399C138.521 35.3713 138.009 35.3431 137.476 35.4553C136.944 35.5675 136.485 35.795 136.099 36.1379C135.714 36.4808 135.441 36.9198 135.281 37.4549C135.122 37.99 135.11 38.5811 135.246 39.2282C135.385 39.8858 135.636 40.4324 136.001 40.8679C136.363 41.2931 136.791 41.5899 137.284 41.7585C137.775 41.9166 138.287 41.9395 138.819 41.8274C139.351 41.7152 139.81 41.4877 140.196 41.1448C140.59 40.7893 140.867 40.344 141.026 39.8088C141.184 39.2633 141.194 38.667 141.058 38.0198ZM149.507 40.8832C148.849 41.0218 148.236 41.0365 147.668 40.9273C147.098 40.8076 146.62 40.5814 146.233 40.2486C145.845 39.9053 145.58 39.476 145.439 38.9607L146.91 38.6506C147.042 39.0697 147.314 39.3776 147.726 39.5742C148.149 39.7686 148.652 39.8042 149.237 39.681C149.78 39.5666 150.182 39.3564 150.445 39.0504C150.707 38.7443 150.8 38.4086 150.723 38.0433C150.644 37.6676 150.419 37.4262 150.047 37.3191C149.674 37.2016 149.119 37.1279 148.382 37.0978C147.71 37.065 147.153 37.008 146.711 36.9267C146.277 36.8329 145.878 36.6498 145.516 36.3773C145.161 36.0923 144.926 35.6732 144.809 35.12C144.717 34.6816 144.763 34.2523 144.947 33.832C145.131 33.4117 145.441 33.0466 145.877 32.7367C146.311 32.4163 146.836 32.1912 147.451 32.0614C148.401 31.8613 149.219 31.9397 149.905 32.2966C150.59 32.6536 151.042 33.2451 151.26 34.0713L149.835 34.3716C149.709 33.9294 149.45 33.6078 149.059 33.4068C148.679 33.2036 148.212 33.1603 147.658 33.2769C147.147 33.3846 146.763 33.58 146.507 33.863C146.25 34.146 146.159 34.4649 146.234 34.8198C146.293 35.1016 146.432 35.3177 146.649 35.4682C146.874 35.606 147.134 35.7038 147.43 35.7614C147.734 35.8064 148.145 35.845 148.664 35.8773C149.315 35.9146 149.851 35.976 150.273 36.0616C150.692 36.1368 151.071 36.3076 151.411 36.5739C151.761 36.8381 151.996 37.23 152.117 37.7497C152.216 38.2194 152.174 38.6696 151.992 39.1003C151.811 39.5311 151.503 39.9066 151.069 40.227C150.643 40.5347 150.122 40.7535 149.507 40.8832ZM160.827 29.3898L158.32 43.0974L156.848 43.4076L157.668 38.918L152.42 31.1615L154.001 30.8283L158.159 37.2122L159.356 29.6999L160.827 29.3898Z" fill="#242424"/>
<path d="M23.8966 21.3405L113.919 2.36941L115.157 8.24046C117.662 20.1296 110.055 31.7987 98.166 34.3042L8.14326 53.2753L6.90601 47.4043C4.40053 35.5152 12.0075 23.846 23.8966 21.3405Z" fill="#E2B8E0"/>
<path d="M32.8139 28.5038L31.9509 40.0826L30.354 40.4191L25.9668 32.1705L25.1875 41.5079L23.6095 41.8568L18.2536 31.5722L19.7723 31.2522L24.1019 40.0034L24.7823 30.1964L26.3792 29.8599L30.8275 38.5534L31.2795 28.8272L32.8139 28.5038ZM44.1536 32.6874C44.2108 32.9588 44.2556 33.2491 44.2881 33.5584L37.4307 35.0035C37.6611 35.8379 38.0878 36.4402 38.7108 36.8103C39.3421 37.1679 40.0335 37.2674 40.785 37.1091C41.4008 36.9793 41.8826 36.7306 42.2302 36.363C42.5861 35.9828 42.797 35.535 42.8628 35.0197L44.3971 34.6964C44.3413 35.5693 44.0239 36.3393 43.445 37.0063C42.8639 37.6629 42.0619 38.099 41.0391 38.3146C40.2249 38.4861 39.4558 38.4575 38.7317 38.2285C38.0181 37.9974 37.4082 37.5863 36.9021 36.9953C36.3938 36.3938 36.0462 35.6495 35.8592 34.7624C35.6723 33.8752 35.6858 33.0602 35.8999 32.3174C36.114 31.5746 36.502 30.9587 37.0639 30.4697C37.6341 29.968 38.3366 29.6292 39.1716 29.4532C39.9858 29.2816 40.7433 29.3073 41.4444 29.5302C42.1454 29.7531 42.7289 30.1425 43.1949 30.6983C43.6691 31.2416 43.9887 31.9046 44.1536 32.6874ZM42.6193 32.7001C42.5049 32.1573 42.287 31.7181 41.9655 31.3825C41.6419 31.0365 41.2504 30.8083 40.7911 30.698C40.3401 30.575 39.8641 30.5663 39.3631 30.6719C38.6429 30.8237 38.0755 31.1831 37.6608 31.7501C37.2566 32.3149 37.1037 33.0121 37.2022 33.8416L42.6193 32.7001ZM46.6169 24.8919L49.0584 36.4774L47.6337 36.7777L45.1922 25.1921L46.6169 24.8919ZM50.6732 31.6405C50.4863 30.7533 50.5009 29.9436 50.7172 29.2112C50.9313 28.4684 51.313 27.8484 51.8623 27.3511C52.422 26.8516 53.1089 26.5161 53.923 26.3445C54.9772 26.1224 55.8974 26.1955 56.6836 26.564C57.4802 26.9303 58.0838 27.5443 58.4944 28.4062L56.9601 28.7295C56.704 28.2385 56.3301 27.8867 55.8384 27.6742C55.3571 27.4595 54.8033 27.4181 54.1771 27.5501C53.3629 27.7216 52.7648 28.142 52.3826 28.8112C51.9981 29.47 51.9137 30.3108 52.1293 31.3337C52.347 32.367 52.7658 33.1126 53.3855 33.5707C54.0053 34.0287 54.7223 34.172 55.5364 34.0004C56.1626 33.8684 56.6537 33.6123 57.0096 33.2321C57.3655 32.8519 57.5646 32.3739 57.6068 31.7981L59.1411 31.4748C59.0962 32.3999 58.7854 33.2012 58.2087 33.8787C57.6298 34.5458 56.8237 34.9882 55.7904 35.2059C54.9763 35.3775 54.2124 35.3477 53.4988 35.1166C52.7955 34.8832 52.1961 34.4699 51.7004 33.8767C51.2048 33.2835 50.8624 32.5381 50.6732 31.6405ZM66.0205 33.0501C65.2168 33.2194 64.4477 33.1907 63.7132 32.964C62.9891 32.7351 62.3687 32.3262 61.8522 31.7374C61.3439 31.1359 60.9963 30.3916 60.8094 29.5044C60.6246 28.6277 60.6497 27.8157 60.8847 27.0686C61.1279 26.3087 61.5409 25.6821 62.1237 25.1887C62.7042 24.6848 63.4016 24.3471 64.2157 24.1755C65.0298 24.0039 65.8041 24.0315 66.5387 24.2583C67.271 24.4746 67.8955 24.8771 68.412 25.4659C68.9389 26.0525 69.2959 26.7894 69.4829 27.6766C69.6698 28.5638 69.6365 29.3884 69.3828 30.1504C69.1374 30.8998 68.7192 31.5275 68.1282 32.0336C67.5372 32.5397 66.8346 32.8785 66.0205 33.0501ZM65.7565 31.7976C66.268 31.6898 66.7228 31.4686 67.121 31.1339C67.5192 30.7993 67.8035 30.3633 67.9736 29.826C68.1543 29.2865 68.172 28.6723 68.0268 27.9834C67.8817 27.2946 67.6228 26.7387 67.2503 26.3157C66.8777 25.8928 66.448 25.6127 65.9613 25.4755C65.4723 25.3278 64.9721 25.3078 64.4607 25.4156C63.9388 25.5256 63.484 25.7468 63.0962 26.0793C62.7167 26.3991 62.447 26.8265 62.2873 27.3616C62.1275 27.8967 62.1202 28.5087 62.2654 29.1976C62.4127 29.8969 62.6623 30.4602 63.014 30.8876C63.3761 31.3127 63.7964 31.6002 64.2749 31.7501C64.7512 31.8895 65.2451 31.9053 65.7565 31.7976ZM81.366 20.5449C82.034 20.4042 82.6586 20.4197 83.2399 20.5915C83.819 20.7529 84.3181 21.0783 84.7374 21.5677C85.1566 22.0571 85.4499 22.6984 85.617 23.4917L86.6827 28.5486L85.2736 28.8455L84.2509 23.9921C84.0705 23.1363 83.7191 22.529 83.1965 22.1704C82.6823 21.7991 82.065 21.6894 81.3448 21.8412C80.6038 21.9973 80.0647 22.3617 79.7275 22.9342C79.3881 23.4962 79.313 24.2261 79.5021 25.1237L80.4985 29.8518L79.0895 30.1488L78.0667 25.2954C77.8863 24.4395 77.5349 23.8323 77.0124 23.4736C76.4981 23.1024 75.8809 22.9926 75.1607 23.1444C74.4196 23.3006 73.8805 23.6649 73.5433 24.2374C73.2039 24.7995 73.1288 25.5293 73.318 26.4269L74.3144 31.1551L72.8896 31.4553L71.0816 22.8758L72.5063 22.5755L72.767 23.8123C72.9542 23.3042 73.2574 22.8805 73.6765 22.5415C74.106 22.2003 74.6078 21.9691 75.1818 21.8482C75.902 21.6964 76.5728 21.724 77.1942 21.931C77.8155 22.138 78.3279 22.526 78.7312 23.0951C78.8437 22.4391 79.1414 21.8858 79.6242 21.4353C80.107 20.9847 80.6876 20.6879 81.366 20.5449ZM96.5007 21.6559C96.5579 21.9273 96.6028 22.2176 96.6352 22.5269L89.7779 23.972C90.0082 24.8064 90.4349 25.4087 91.058 25.7789C91.6892 26.1364 92.3806 26.2359 93.1321 26.0776C93.7479 25.9478 94.2297 25.6991 94.5774 25.3315C94.9333 24.9513 95.1441 24.5035 95.2099 23.9882L96.7442 23.6649C96.6884 24.5378 96.371 25.3078 95.7921 25.9749C95.211 26.6315 94.409 27.0675 93.3862 27.2831C92.5721 27.4547 91.803 27.426 91.0788 27.197C90.3652 26.9659 89.7553 26.5548 89.2492 25.9638C88.7409 25.3624 88.3933 24.6181 88.2064 23.7309C88.0194 22.8437 88.033 22.0287 88.2471 21.2859C88.4612 20.5432 88.8492 19.9272 89.4111 19.4382C89.9812 18.9365 90.6838 18.5977 91.5188 18.4217C92.3329 18.2502 93.0905 18.2758 93.7915 18.4987C94.4925 18.7216 95.076 19.111 95.542 19.6669C96.0162 20.2101 96.3358 20.8731 96.5007 21.6559ZM94.9664 21.6686C94.852 21.1258 94.6341 20.6867 94.3127 20.3511C93.989 20.005 93.5975 19.7769 93.1383 19.6665C92.6872 19.5436 92.2112 19.5349 91.7102 19.6404C90.99 19.7922 90.4226 20.1516 90.0079 20.7186C89.6037 21.2835 89.4509 21.9806 89.5494 22.8101L94.9664 21.6686ZM99.5287 14.4445L101.006 22.3089L99.8162 22.5596L97.9944 14.7679L99.5287 14.4445ZM101.144 25.5993C100.872 25.6565 100.623 25.6109 100.395 25.4626C100.168 25.3143 100.026 25.1045 99.9683 24.8331C99.9111 24.5618 99.9567 24.3124 100.105 24.0849C100.253 23.8574 100.463 23.7151 100.734 23.6579C100.995 23.6029 101.234 23.6507 101.451 23.8011C101.679 23.9494 101.821 24.1593 101.878 24.4306C101.936 24.702 101.89 24.9514 101.742 25.1789C101.604 25.4042 101.405 25.5443 101.144 25.5993Z" fill="#242424"/>
<path d="M23.8966 21.3405L113.919 2.36941L115.157 8.24046C117.662 20.1296 110.055 31.7987 98.166 34.3042L8.14326 53.2753L6.90601 47.4043C4.40053 35.5152 12.0075 23.846 23.8966 21.3405Z" stroke="#212121" stroke-width="4"/>
</svg>
