<svg width="64" height="64" viewBox="0 0 64 64" fill="none" xmlns="http://www.w3.org/2000/svg">
<path d="M22.667 50C22.667 51.1 21.767 52 20.667 52C19.567 52 18.667 51.1 18.667 50V24C18.667 22.9 19.567 22 20.667 22C21.767 22 22.667 22.9 22.667 24V50ZM32.667 50C32.667 51.1 31.767 52 30.667 52C29.567 52 28.667 51.1 28.667 50V24C28.667 22.9 29.567 22 30.667 22C31.767 22 32.667 22.9 32.667 24V50ZM42.667 50C42.667 51.1 41.767 52 40.667 52C39.567 52 38.667 51.1 38.667 50V24C38.667 22.9 39.567 22 40.667 22C41.767 22 42.667 22.9 42.667 24V50ZM42.3545 3.1175L46.942 10H55.667C57.3295 10 58.667 11.3438 58.667 13C58.667 14.6625 57.3295 16 55.667 16H54.667V54C54.667 59.525 50.192 64 44.667 64H16.667C11.1445 64 6.66699 59.525 6.66699 54V16H5.66699C4.01074 16 2.66699 14.6625 2.66699 13C2.66699 11.3438 4.01074 10 5.66699 10H14.3945L18.9795 3.1175C20.2795 1.16963 22.467 0 24.8045 0H36.5295C38.867 0 41.0545 1.16975 42.3545 3.1175ZM21.6045 10H39.7295L37.3545 6.445C37.167 6.1675 36.8545 6 36.5295 6H24.8045C24.4795 6 24.0545 6.1675 23.9795 6.445L21.6045 10ZM12.667 54C12.667 56.2125 14.4582 58 16.667 58H44.667C46.8795 58 48.667 56.2125 48.667 54V16H12.667V54Z" fill="#DEDEDE"/>
</svg>
