<svg width="24" height="24" viewBox="0 0 24 24" fill="none" xmlns="http://www.w3.org/2000/svg">
<path d="M8.5 18.75C8.5 19.1625 8.1625 19.5 7.75 19.5C7.3375 19.5 7 19.1625 7 18.75V9C7 8.5875 7.3375 8.25 7.75 8.25C8.1625 8.25 8.5 8.5875 8.5 9V18.75ZM12.25 18.75C12.25 19.1625 11.9125 19.5 11.5 19.5C11.0875 19.5 10.75 19.1625 10.75 18.75V9C10.75 8.5875 11.0875 8.25 11.5 8.25C11.9125 8.25 12.25 8.5875 12.25 9V18.75ZM16 18.75C16 19.1625 15.6625 19.5 15.25 19.5C14.8375 19.5 14.5 19.1625 14.5 18.75V9C14.5 8.5875 14.8375 8.25 15.25 8.25C15.6625 8.25 16 8.5875 16 9V18.75ZM15.8828 1.16906L17.6031 3.75H20.875C21.4984 3.75 22 4.25391 22 4.875C22 5.49844 21.4984 6 20.875 6H20.5V20.25C20.5 22.3219 18.8219 24 16.75 24H6.25C4.17906 24 2.5 22.3219 2.5 20.25V6H2.125C1.50391 6 1 5.49844 1 4.875C1 4.25391 1.50391 3.75 2.125 3.75H5.39781L7.11719 1.16906C7.60469 0.438609 8.425 0 9.30156 0H13.6984C14.575 0 15.3953 0.438656 15.8828 1.16906ZM8.10156 3.75H14.8984L14.0078 2.41688C13.9375 2.31281 13.8203 2.25 13.6984 2.25H9.30156C9.17969 2.25 9.02031 2.31281 8.99219 2.41688L8.10156 3.75ZM4.75 20.25C4.75 21.0797 5.42172 21.75 6.25 21.75H16.75C17.5797 21.75 18.25 21.0797 18.25 20.25V6H4.75V20.25Z" fill="#3A3A3A"/>
</svg>
