<svg width="24" height="24" viewBox="0 0 24 24" fill="none" xmlns="http://www.w3.org/2000/svg">
<path d="M14.3571 14.25H9.64286C4.86964 14.25 1 17.9438 1 22.5C1 23.3283 1.70371 24 2.57143 24H21.4286C22.2963 24 23 23.3283 23 22.5C23 17.9438 19.1304 14.25 14.3571 14.25ZM3.40576 21.75C3.79371 18.7922 6.44107 16.5 9.64286 16.5H14.3571C17.557 16.5 20.2058 18.7945 20.5938 21.75H3.40576ZM12 12C15.4714 12 18.2857 9.31359 18.2857 6C18.2857 2.68641 15.4714 0 12 0C8.52862 0 5.71429 2.68641 5.71429 6C5.71429 9.31406 8.52812 12 12 12ZM12 2.25C14.1661 2.25 15.9286 3.93234 15.9286 6C15.9286 8.06766 14.1661 9.75 12 9.75C9.83388 9.75 8.07143 8.06719 8.07143 6C8.07143 3.93234 9.83437 2.25 12 2.25Z" fill="black"/>
</svg>
